<svg width="174" height="150" viewBox="0 0 174 150" fill="none" xmlns="http://www.w3.org/2000/svg">
<path d="M23.2423 13.3786H146.748C150.37 13.3786 153.306 16.3146 153.306 19.9364V54.8211C153.306 57.5374 151.104 59.7395 148.388 59.7395H122.513C120.815 59.7395 119.254 58.85 118.262 57.4715C113.616 51.015 107.178 46.0327 99.7177 43.1613C91.4059 39.962 82.2781 39.5571 73.7157 42.008C65.1533 44.4589 57.6223 49.6321 52.2621 56.7447C46.902 63.8574 44.0045 72.5225 44.0081 81.4288C44.0118 90.335 46.9163 98.9977 52.2823 106.106C57.6482 113.214 65.1835 118.381 73.7479 120.825C82.3123 123.269 91.4397 122.857 99.7489 119.651C105.287 117.514 110.26 114.214 114.354 110.011C117.046 107.247 114.808 103.056 110.95 103.056H92.3867C89.6703 103.056 87.4683 100.854 87.4683 98.1378V86.62C87.4683 83.9037 89.6703 81.7017 92.3867 81.7017H146.748C150.37 81.7017 153.306 84.6377 153.306 88.2595V143.442C153.306 147.064 150.37 150 146.748 150H23.2423C19.6206 150 16.6845 147.064 16.6845 143.442V19.9364C16.6845 16.3146 19.6206 13.3786 23.2423 13.3786Z" fill="#3C3C3C"/>
<path fill-rule="evenodd" clip-rule="evenodd" d="M2.61877 146.971C12.2122 158.203 57.768 135.043 104.37 95.2406C150.973 55.4383 180.975 14.0665 171.381 2.83399C161.788 -8.39851 116.232 14.7618 69.6295 54.5641C23.027 94.3663 -6.97469 135.738 2.61877 146.971ZM32.1043 136.716C37.9099 143.164 69.2999 124.365 102.216 94.7274C135.132 65.0899 157.109 35.8369 151.303 29.3891C145.497 22.9413 114.107 41.7403 81.1916 71.3778C48.2758 101.015 26.2986 130.268 32.1043 136.716Z" fill="#3C3C3C"/>
<path d="M122.358 86.6481V98.1634C122.358 100.88 120.156 103.082 117.439 103.082H92.2954C89.579 103.082 87.377 100.88 87.377 98.1634V86.6481C87.377 83.9318 89.579 81.7298 92.2954 81.7298H117.439C120.156 81.7298 122.358 83.9318 122.358 86.6481Z" fill="#3C3C3C"/>
</svg>
