<svg width="200" height="134" viewBox="0 0 200 134" fill="none" xmlns="http://www.w3.org/2000/svg">
<path d="M149.824 27.2665L149.829 27.2667C149.836 27.267 149.844 27.2653 149.85 27.2619L149.854 27.26C150.474 26.9457 151.11 26.6657 151.761 26.4212C152.406 26.176 153.074 25.9385 153.724 25.7481L153.671 25.7557L153.681 25.756C153.697 25.7565 153.713 25.7544 153.729 25.7498L153.742 25.7458C157.176 24.6685 160.742 24.0679 164.34 23.9608C166.133 23.9077 167.928 23.9649 169.714 24.1321L175.127 24.5895C178.737 24.8807 182.354 25.0889 185.97 25.3191C189.586 25.5382 193.2 25.7758 196.81 26.0764L196.732 25.7999C196.094 26.264 195.509 26.7987 194.991 27.3938C194.477 27.996 194.04 28.6589 193.688 29.3677C193.348 30.0811 193.078 30.8261 192.882 31.5921C192.697 32.3597 192.579 33.1418 192.528 33.9297C192.44 35.5044 192.546 37.0839 192.843 38.6328C193.124 40.1885 193.565 41.711 194.159 43.176L194.589 42.6227C192.05 42.1429 189.511 41.6589 186.968 41.1977L179.342 39.7977L179.758 40.1732L179.703 40.0096L179.72 40.0541C179.351 38.8868 178.591 37.8822 177.568 37.2095C176.552 36.5385 175.346 36.2131 174.13 36.2815C172.908 36.3599 171.75 36.8497 170.842 37.6711C170.724 37.7661 170.617 37.8746 170.524 37.9944L170.229 38.3407C170.052 38.5847 169.889 38.8384 169.741 39.1007C169.6 39.3607 169.504 39.6282 169.384 39.8918C169.328 40.0244 169.267 40.1556 169.216 40.2894L169.09 40.6981C168.483 42.8598 168.25 45.1092 168.4 47.3494C168.5 49.5594 168.81 51.7548 169.327 53.9059L169.708 53.5233L164.581 52.4514L159.444 51.4243C159.431 51.4217 159.418 51.4243 159.407 51.4314C159.396 51.4386 159.388 51.4498 159.385 51.4626C159.382 51.4755 159.384 51.489 159.391 51.5003C159.398 51.5115 159.409 51.5197 159.422 51.5229L164.488 52.8518L169.564 54.1424C169.615 54.1554 169.668 54.1552 169.719 54.1421C169.77 54.1289 169.817 54.1031 169.856 54.067C169.894 54.0309 169.923 53.9858 169.939 53.9357C169.955 53.8856 169.959 53.8322 169.949 53.7805L169.945 53.7598C169.535 51.6369 169.301 49.4839 169.246 47.3226C169.153 45.1894 169.425 43.0561 170.048 41.0139L170.168 40.6409C170.216 40.5206 170.272 40.4045 170.324 40.286C170.433 40.0545 170.525 39.8051 170.647 39.5876C170.785 39.3857 170.894 39.1611 171.051 38.9751L171.291 38.7005C171.365 38.604 171.451 38.5179 171.548 38.4447C172.283 37.7971 173.215 37.4163 174.193 37.3636C175.175 37.3072 176.15 37.5684 176.973 38.1086C177.792 38.6491 178.405 39.4501 178.713 40.3821L178.729 40.4268C178.732 40.4396 178.736 40.452 178.741 40.464L178.775 40.5412C178.81 40.6185 178.863 40.6861 178.929 40.7381C178.996 40.7902 179.075 40.825 179.158 40.8396L186.803 42.1338C189.35 42.5707 191.901 42.9848 194.452 43.4031C194.522 43.4147 194.595 43.407 194.662 43.3808C194.728 43.3546 194.787 43.3109 194.831 43.2542C194.875 43.1976 194.903 43.1301 194.912 43.0589C194.921 42.9877 194.91 42.9154 194.881 42.8497C194.275 41.4492 193.803 39.9947 193.47 38.5055C193.124 37.014 192.968 35.4846 193.006 33.954C193.031 33.191 193.122 32.4316 193.277 31.6841C193.441 30.9394 193.688 30.2154 194.013 29.5254C194.344 28.8389 194.757 28.1954 195.245 27.6095C195.74 27.0281 196.299 26.5042 196.912 26.0479L196.916 26.0446C196.941 26.0256 196.959 25.9998 196.968 25.9705C196.977 25.9411 196.978 25.9096 196.969 25.8801C196.96 25.8505 196.943 25.8243 196.919 25.8049C196.895 25.7855 196.865 25.7738 196.835 25.7713C193.225 25.478 189.62 25.124 186.017 24.7473C182.413 24.3823 178.81 23.9955 175.201 23.6916L169.786 23.2563C167.963 23.1008 166.132 23.0728 164.305 23.1724C162.479 23.2735 160.663 23.5121 158.873 23.886C157.085 24.2479 155.328 24.752 153.62 25.3936L153.681 25.3835L153.671 25.3837L153.657 25.3842C153.644 25.3846 153.631 25.3871 153.618 25.3914C152.941 25.6332 152.308 25.9019 151.664 26.1899C151.023 26.4761 150.401 26.8041 149.803 27.1719L149.828 27.1652L149.824 27.1654C149.811 27.1659 149.798 27.1714 149.789 27.1809C149.78 27.1903 149.775 27.2029 149.775 27.216C149.775 27.229 149.78 27.2416 149.789 27.251C149.798 27.2605 149.811 27.266 149.824 27.2665L149.824 27.2665Z" fill="#606060"/>
<path d="M127.686 40.7589C127.975 39.3137 128.554 37.9421 129.388 36.7273C129.805 36.1449 130.284 35.61 130.817 35.1319C131.356 34.6604 131.935 34.2351 132.546 33.8606C133.801 33.1266 135.141 32.5469 136.535 32.1341C137.949 31.7059 139.394 31.391 140.858 31.1924L140.887 31.1896C141.387 31.0502 141.886 30.9013 142.382 30.7429C141.861 30.7685 141.343 30.8056 140.825 30.8512L140.853 30.8485C139.325 30.7817 137.794 30.9274 136.305 31.2814C134.794 31.6219 133.347 32.2065 132.024 33.0123C130.674 33.8256 129.55 34.965 128.756 36.3259C127.992 37.6745 127.621 39.2103 127.686 40.7589V40.7589Z" fill="#606060"/>
<path d="M175.603 36.5907C174.722 36.2494 173.83 35.9523 172.933 35.6828C172.036 35.4097 171.134 35.1575 170.228 34.9261C169.325 34.6826 168.411 34.484 167.501 34.2693C166.586 34.0774 165.673 33.8767 164.751 33.7155L164.538 33.6783L164.404 33.7805C164.027 34.0725 163.678 34.4004 163.363 34.7597C163.051 35.1016 162.764 35.4658 162.505 35.8494C162.245 36.2284 162.012 36.6249 161.807 37.0362C161.601 37.4431 161.426 37.8653 161.285 38.2991C161.549 37.9296 161.821 37.5719 162.101 37.2261C162.385 36.8807 162.671 36.5362 162.97 36.2235C163.274 35.9065 163.586 35.5997 163.91 35.311C164.227 35.0325 164.559 34.7716 164.904 34.5293L164.557 34.5943C165.46 34.8365 166.373 35.0398 167.282 35.2551C168.197 35.4468 169.109 35.6544 170.03 35.8173C170.948 35.9937 171.872 36.1478 172.8 36.2796C173.727 36.4165 174.66 36.5257 175.603 36.5907Z" fill="#606060"/>
<path d="M188.438 25.2344C187.357 26.2338 186.507 27.4564 185.946 28.8173C185.359 30.1779 184.989 31.622 184.849 33.0971C184.732 34.5686 184.822 36.0492 185.117 37.4956C185.153 37.6753 185.18 37.8564 185.223 38.0343L185.374 38.5625L185.691 39.6097C185.946 40.2923 186.246 40.9579 186.56 41.6073C186.458 40.8828 186.289 40.1884 186.172 39.4857L186.023 38.4297L185.941 37.9062C185.92 37.7312 185.913 37.5541 185.898 37.3786C185.873 37.0267 185.845 36.6765 185.808 36.3279C185.782 35.9785 185.796 35.627 185.787 35.2778C185.772 34.5805 185.795 33.8828 185.856 33.188C185.984 31.7987 186.261 30.4272 186.681 29.0967C187.104 27.7414 187.695 26.444 188.438 25.2344V25.2344Z" fill="#606060"/>
<path d="M161.012 35.7629C160.256 35.4805 159.495 35.203 158.73 34.9398C158.772 35.2523 158.794 35.5672 158.797 35.8825C159.452 36.0883 160.113 36.2845 160.778 36.4759C161.228 36.6051 161.678 36.7343 162.132 36.8635C162.194 36.7678 162.257 36.6769 162.319 36.5907C162.381 36.4998 162.448 36.4137 162.505 36.3323C162.008 36.1362 161.51 35.9495 161.012 35.7629Z" fill="#606060"/>
<path d="M153.47 34.1454C154.054 34.3464 154.628 34.5474 155.212 34.7436H155.217C155.399 34.4557 155.611 34.1878 155.849 33.9444L155.633 33.8726C154.987 33.662 154.341 33.4515 153.695 33.2457C153.619 33.5711 153.537 33.8726 153.47 34.1454Z" fill="#606060"/>
<path d="M156.758 30.9917C155.796 30.6807 154.834 30.3696 153.868 30.0681C153.972 30.3894 154.022 30.7258 154.016 31.0635C154.825 31.3507 155.643 31.6234 156.457 31.901C158.261 32.4896 160.074 33.0686 161.902 33.5903C162.749 33.8391 163.601 34.0768 164.458 34.3033C165.444 34.5665 166.43 34.8154 167.43 35.0307C167.033 34.8536 166.635 34.6766 166.233 34.5043C166.229 34.5043 166.229 34.5043 166.224 34.4995C164.874 33.9253 163.506 33.394 162.137 32.882C160.357 32.212 158.557 31.5995 156.758 30.9917Z" fill="#606060"/>
<path d="M149.23 29.2976C149.312 29.3311 149.393 29.3646 149.475 29.3933C149.684 29.2183 149.92 29.0777 150.173 28.977C149.915 28.9052 149.656 28.8334 149.398 28.7616C149.336 28.9626 149.278 29.1445 149.23 29.2976Z" fill="#606060"/>
<path d="M194.519 43.0111C205.323 33.1501 196.82 25.9258 196.82 25.9258C189.269 31.3937 194.519 43.0111 194.519 43.0111Z" fill="#606060"/>
<path d="M169.637 53.8311C178.552 56.4904 179.249 40.318 179.249 40.318C179.239 40.2848 179.228 40.2518 179.218 40.2191C177.877 36.1015 172.132 35.5689 170.149 39.4189C167.463 44.636 169.637 53.8311 169.637 53.8311Z" fill="#606060"/>
<path d="M162.912 51.8996C164.388 55.538 165.899 59.1388 167.289 62.7728C168.71 66.3621 169.907 70.0359 170.874 73.7731C171.102 74.6902 171.277 75.6197 171.398 76.5569C171.53 77.4642 171.526 78.3862 171.386 79.2923C171.313 79.7185 171.168 80.1293 170.958 80.5076C170.745 80.867 170.448 81.1702 170.094 81.3922C169.285 81.8023 168.365 81.9399 167.471 81.7847C165.573 81.4552 163.747 80.7975 162.074 79.8411C161.65 79.6057 161.224 79.3734 160.805 79.1279L159.565 78.3563C158.728 77.8602 157.944 77.2793 157.142 76.7336C156.342 76.1828 155.581 75.5754 154.801 75.0011L153.669 74.0885C153.292 73.7843 152.904 73.4953 152.54 73.1746C151.809 72.539 151.048 71.9431 150.337 71.2864L149.253 70.324L148.197 69.331C146.795 68.0022 145.446 66.6209 144.15 65.1871C142.845 63.764 141.593 62.2937 140.37 60.7989C137.919 57.802 135.636 54.6708 133.533 51.42C132.478 49.7914 131.465 48.1325 130.496 46.4432C129.524 44.7555 128.595 43.0362 127.748 41.274L127.558 41.3417C128.703 45.1249 130.247 48.7759 132.163 52.2332C134.054 55.7174 136.237 59.0351 138.688 62.1509C141.166 65.2547 143.916 68.1302 146.907 70.7429L148.03 71.7189L149.184 72.6574C149.948 73.2884 150.748 73.8758 151.548 74.4602C152.349 75.0427 153.181 75.5834 154.005 76.1293C154.854 76.6409 155.68 77.1828 156.543 77.6659C157.405 78.1504 158.255 78.6496 159.134 79.0985C160.005 79.5591 160.874 80.0233 161.764 80.454C163.537 81.3699 165.428 82.0364 167.383 82.4348C168.426 82.6548 169.511 82.5454 170.489 82.1218C170.994 81.8685 171.431 81.498 171.763 81.0411C172.075 80.5892 172.313 80.0905 172.469 79.5637C172.745 78.5539 172.866 77.508 172.828 76.4617C172.801 75.4471 172.699 74.4359 172.524 73.4361C172.167 71.4715 171.642 69.5409 170.957 67.6653C170.301 65.7934 169.551 63.9646 168.736 62.1681C168.337 61.2665 167.904 60.3811 167.467 59.4986C167.034 58.6144 166.577 57.742 166.107 56.8775C165.171 55.1469 164.183 53.4449 163.09 51.8039L162.912 51.8996Z" fill="#606060"/>
<path d="M186.697 28.0217C183.941 27.607 181.178 27.2918 178.412 27.0117C175.646 26.7252 172.876 26.4977 170.105 26.2817C167.333 26.0846 164.56 25.9 161.783 25.7743C159.006 25.6422 156.226 25.546 153.439 25.55C156.195 25.966 158.958 26.2817 161.724 26.5616C164.49 26.8478 167.26 27.0752 170.03 27.29C172.803 27.4859 175.576 27.6705 178.353 27.7959C181.13 27.9277 183.91 28.0245 186.697 28.0217Z" fill="#606060"/>
<path d="M152.848 74.4483C153.244 70.9337 153.626 67.4134 153.967 63.8893L154.098 62.5678L154.163 61.907C154.17 61.8555 154.172 61.789 154.182 61.7497C154.194 61.7184 154.204 61.6863 154.211 61.6536C154.244 61.5653 154.282 61.4788 154.324 61.3945C154.714 60.6545 155.227 59.9142 155.702 59.1754C156.673 57.6965 157.609 56.1802 158.445 54.6016C158.859 53.8096 159.249 53.0022 159.59 52.1689C159.927 51.3251 160.21 50.4848 160.502 49.6551C161.09 47.9892 161.673 46.3217 162.234 44.6465L163.086 42.1371L163.299 41.5098C163.382 41.2724 163.437 41.0263 163.464 40.7762C163.524 40.2677 163.452 39.7524 163.256 39.2794C163.061 38.7759 162.69 38.3601 162.213 38.109C161.718 37.892 161.161 37.8696 160.651 38.0463C159.774 38.3753 158.974 38.8804 158.3 39.5305L158.826 39.826C158.948 38.9726 159.026 38.1136 159.06 37.2523C159.076 36.8224 159.079 36.3878 159.062 35.9576C159.025 35.5238 159.008 35.083 158.935 34.6525C158.872 34.194 158.708 33.7552 158.456 33.3675C158.305 33.1497 158.083 32.9918 157.827 32.9214C157.582 32.8711 157.328 32.8851 157.09 32.9621C156.23 33.2543 155.509 33.8536 155.064 34.6451L155.217 34.5619H155.212L155.113 34.5625L155.061 34.6434C154.767 35.1146 154.501 35.6026 154.264 36.1049C154.154 36.3438 154.025 36.5734 153.878 36.7915C153.787 36.8988 153.789 36.8973 153.66 36.9048C153.62 36.9089 153.579 36.9005 153.543 36.8808C153.508 36.8611 153.479 36.831 153.461 36.7945C153.372 36.5654 153.336 36.3189 153.357 36.0738C153.364 35.805 153.385 35.5368 153.42 35.2703C153.488 34.7316 153.594 34.1982 153.737 33.6742C153.883 33.1407 154 32.5999 154.089 32.054C154.189 31.4957 154.197 30.9246 154.112 30.3637C154.058 30.073 153.95 29.795 153.793 29.5443C153.629 29.2909 153.404 29.0821 153.139 28.9365C152.616 28.6806 152.034 28.5685 151.454 28.6117L151.484 28.6131C151.236 28.5892 150.986 28.5974 150.741 28.6375C150.498 28.6767 150.26 28.744 150.033 28.8379C149.572 29.0306 149.174 29.3454 148.879 29.7481L148.898 29.7266C148.859 29.7672 148.837 29.8202 148.835 29.876L148.838 30.692L149.213 29.9658L149.218 29.9564L149.222 29.9473L149.23 29.9244C149.9 28.1478 150.352 26.2963 150.575 24.4107C150.622 23.9221 150.615 23.4299 150.555 22.9428C150.51 22.3997 150.274 21.89 149.89 21.5032C149.666 21.3092 149.392 21.1819 149.099 21.1357C148.816 21.1025 148.528 21.1318 148.257 21.2215C147.772 21.4032 147.329 21.681 146.955 22.0383C146.252 22.7067 145.633 23.4594 145.114 24.2793C144.591 25.0759 144.111 25.8995 143.675 26.7468C142.766 28.4269 142.049 30.2038 141.537 32.0439C141.05 33.866 140.589 35.6713 139.964 37.4135C139.333 39.1342 138.572 40.8655 137.361 42.1204C136.799 42.736 136.046 43.1442 135.223 43.2788C134.801 43.3228 134.374 43.3055 133.957 43.2274C133.512 43.1661 133.072 43.0757 132.639 42.9569C131.77 42.7216 130.932 42.3839 130.143 41.9509C129.363 41.5246 128.642 40.9975 127.999 40.3832L127.482 39.8703L127.207 40.498C126.909 41.2031 126.728 41.9523 126.671 42.7158C126.609 43.4561 126.635 44.2012 126.75 44.9352C126.993 46.3875 127.519 47.7781 128.297 49.0283C128.683 49.6633 129.153 50.2434 129.694 50.7531C130.244 51.242 130.845 51.6706 131.487 52.0315C132.118 52.3864 132.765 52.6809 133.358 53.0116C133.937 53.2918 134.432 53.7191 134.795 54.2508C135.096 54.8269 135.256 55.4669 135.26 56.1173C135.306 56.8095 135.333 57.5074 135.341 58.2076C135.358 59.6078 135.331 61.0127 135.281 62.4167C135.228 63.8205 135.173 65.2258 135.082 66.6289C134.983 68.0294 134.905 69.4402 134.669 70.8202L134.763 70.8417C135.063 69.4566 135.203 68.0536 135.365 66.6532C135.514 65.2514 135.649 63.8476 135.741 62.4402C135.835 61.0328 135.905 59.6234 135.931 58.2085C135.945 57.5011 135.939 56.7909 135.915 56.0779C135.927 55.3169 135.755 54.5643 135.413 53.8841C134.998 53.2354 134.42 52.7074 133.736 52.3531C133.106 51.9869 132.475 51.6857 131.886 51.3389C131.306 50.9983 130.764 50.5972 130.269 50.1421C129.793 49.6759 129.383 49.1479 129.048 48.5723C128.356 47.412 127.897 46.1282 127.696 44.7925C127.596 44.1342 127.575 43.4664 127.633 42.8031C127.684 42.1607 127.834 41.5301 128.079 40.9338L127.287 41.0485C128.714 42.4194 130.465 43.407 132.377 43.9193C132.849 44.0507 133.329 44.1512 133.814 44.2202C134.062 44.247 134.289 44.2935 134.554 44.3032L134.952 44.3152C135.085 44.3073 135.219 44.2919 135.352 44.2794C136.401 44.1239 137.365 43.6106 138.08 42.8265C139.473 41.3387 140.216 39.5162 140.859 37.7294C141.484 35.9275 141.932 34.0829 142.397 32.273C142.515 31.8221 142.633 31.3732 142.776 30.9477C142.921 30.5139 143.086 30.0816 143.257 29.6518C143.601 28.792 143.98 27.9428 144.393 27.1126C144.802 26.282 145.253 25.4736 145.747 24.6906C146.221 23.9141 146.785 23.1959 147.426 22.5507C147.723 22.2482 148.077 22.0077 148.468 21.8431C148.642 21.7798 148.828 21.7537 149.013 21.7666C149.186 21.7899 149.351 21.8604 149.487 21.9704C149.77 22.2566 149.945 22.6314 149.984 23.0319C150.051 23.476 150.069 23.9261 150.038 24.3741C149.864 26.2277 149.464 28.053 148.848 29.8097L148.861 29.7779L148.856 29.7874L149.234 29.8773C149.234 29.9015 149.23 29.9256 149.221 29.948C149.211 29.9704 149.198 29.9907 149.18 30.0076L149.199 29.986C149.444 29.6303 149.782 29.349 150.177 29.173C150.573 28.9989 151.006 28.9251 151.437 28.9581L151.456 28.9599L151.467 28.9595C151.986 28.9147 152.507 29.0073 152.977 29.2281C153.196 29.3528 153.383 29.5253 153.526 29.7327C153.668 29.9401 153.761 30.177 153.799 30.4257C153.882 30.9509 153.878 31.4861 153.788 32.0101C153.705 32.5477 153.595 33.0807 153.456 33.6067C153.31 34.1408 153.197 34.6837 153.118 35.2319C153.078 35.5087 153.053 35.7874 153.043 36.0668C153.014 36.3698 153.062 36.6752 153.18 36.9555C153.229 37.037 153.297 37.1051 153.379 37.1538C153.461 37.2024 153.553 37.2302 153.648 37.2345C153.743 37.2387 153.838 37.2195 153.923 37.1784C154.009 37.1372 154.083 37.0756 154.139 36.9988C154.304 36.7652 154.448 36.5181 154.57 36.2601C154.807 35.7729 155.072 35.3 155.364 34.8437L155.212 34.9252L155.217 34.9252L155.316 34.9258L155.37 34.8419C155.767 34.1342 156.419 33.6045 157.194 33.3605C157.351 33.2925 157.528 33.2824 157.692 33.3321C157.856 33.3818 157.998 33.488 158.091 33.632C158.289 33.9684 158.412 34.3436 158.452 34.7319C158.509 35.1417 158.511 35.5542 158.534 35.9676C158.539 36.3873 158.523 36.8035 158.495 37.2226C158.436 38.0596 158.335 38.8932 158.193 39.7201L158.047 40.5724L158.719 40.0156C159.337 39.4512 160.062 39.0164 160.85 38.737C161.186 38.6242 161.553 38.6423 161.876 38.7876C162.178 38.9699 162.408 39.2509 162.526 39.5832C162.666 39.9328 162.715 40.3123 162.667 40.6858C162.644 40.8754 162.6 41.0618 162.535 41.2413L162.317 41.8674L161.441 44.372C160.85 46.0395 160.282 47.7146 159.718 49.3913C159.433 50.2319 159.16 51.0709 158.85 51.872C158.531 52.6789 158.161 53.4693 157.765 54.2484C156.969 55.8069 156.046 57.3025 155.119 58.8057C154.661 59.5665 154.18 60.2945 153.768 61.1303C153.714 61.2448 153.668 61.3626 153.629 61.483C153.611 61.558 153.595 61.634 153.581 61.7093C153.571 61.7783 153.572 61.8233 153.566 61.8814L153.52 62.5416L153.427 63.8622C153.17 67.3836 152.954 70.9089 152.753 74.4398L152.848 74.4483Z" fill="#606060"/>
<path d="M147.082 35.0303L149.257 29.9625L148.809 29.7931L147.082 35.0303Z" fill="#606060"/>
<path d="M76.2239 17.7178C77.9879 18.4653 79.8265 19.0938 81.6677 19.6704C83.5185 20.2411 85.3994 20.7088 87.302 21.0714C89.2148 21.4631 91.1629 21.6572 93.1154 21.6506C94.1061 21.6416 95.0938 21.5403 96.0656 21.348C97.0669 21.1572 98.0253 20.7862 98.8941 20.2531L98.8519 20.2774C100.313 19.5485 101.781 18.835 103.234 18.09L103.719 17.8414L103.427 17.4216C103.392 17.3653 103.348 17.3149 103.297 17.2725C103.272 17.2494 103.246 17.2283 103.218 17.2094C103.174 17.1791 103.122 17.1395 103.083 17.119C103.003 17.0747 102.916 17.0199 102.84 16.9872C102.682 16.9091 102.526 16.8422 102.372 16.7839C102.063 16.6635 101.757 16.5568 101.449 16.4656C100.835 16.2709 100.218 16.1237 99.6003 15.9793C98.3655 15.6945 97.1264 15.4536 95.883 15.2566C94.6408 15.0478 93.3965 14.8645 92.1509 14.6954C90.9062 14.5191 89.6586 14.3722 88.4123 14.2161L88.5811 14.309L86.0322 11.3919C85.1811 10.4182 84.3612 9.42978 83.4812 8.46698C81.7041 6.56192 79.6453 4.94083 77.3765 3.6603C76.2381 3.02726 75.0553 2.47775 73.8373 2.01613C72.6141 1.5671 71.3625 1.19986 70.0906 0.916822C67.542 0.268668 64.9016 0.0593741 62.2827 0.297924C59.6319 0.625528 57.105 1.61047 54.9317 3.16322C52.7699 4.73885 51.0088 6.80068 49.7906 9.18228C49.1874 10.3721 48.7171 11.6248 48.3882 12.9177L48.1749 13.8949C48.1156 14.2186 48.0585 14.5399 48.0092 14.8644C47.906 15.5116 47.822 16.1624 47.7575 16.8169C47.6173 18.1307 47.5852 19.4538 47.6616 20.7729C47.7328 22.1121 47.977 23.4365 48.3881 24.713L48.5534 25.2094L49.0531 25.0592L55.8043 23.0297L62.5739 21.0589C64.8305 20.4021 67.0926 19.7647 69.3647 19.1696C70.4988 18.8634 71.6367 18.5746 72.7785 18.3033C73.3515 18.1844 73.9217 18.0311 74.4985 17.9402L75.3632 17.7853L76.2239 17.7178ZM76.2473 17.6144L75.3459 17.6237L74.4653 17.7244C73.8757 17.7865 73.3005 17.91 72.7165 18C71.557 18.2128 70.4 18.4405 69.25 18.6945C66.9501 19.205 64.6609 19.7576 62.3772 20.3297C60.0928 20.9003 57.8215 21.5178 55.5492 22.131C53.2785 22.7519 51.0073 23.3654 48.7459 24.026L49.4107 24.3722C48.6521 22.0192 48.6574 19.4395 48.8858 16.928C48.9464 16.2972 49.0266 15.6677 49.1264 15.0394C49.1735 14.7255 49.2289 14.4109 49.2854 14.0997L49.4839 13.1846C49.7783 11.9699 50.2042 10.7908 50.754 9.66825C51.8694 7.4174 53.498 5.46009 55.5086 3.95407C57.537 2.4599 59.9 1.48422 62.3917 1.11201C64.921 0.813169 67.4824 0.936008 69.9714 1.47551C72.4971 1.92572 74.9352 2.77425 77.1946 3.98939C79.4537 5.21398 81.4943 6.80449 83.2334 8.69629C84.9244 10.6266 86.5363 12.6606 88.1699 14.6561L88.2318 14.7316L88.339 14.7491C89.5758 14.9506 90.8138 15.1444 92.0465 15.3642C93.2803 15.5769 94.5116 15.8037 95.7355 16.0548C96.9603 16.3031 98.1801 16.5687 99.3852 16.867C99.9867 17.0176 100.585 17.1818 101.168 17.3645C101.461 17.4525 101.747 17.5544 102.022 17.6623C102.161 17.7158 102.293 17.7733 102.416 17.8349C102.484 17.8639 102.529 17.8969 102.586 17.9268C102.607 17.9392 102.627 17.9526 102.647 17.9672C102.658 17.9742 102.666 17.9805 102.66 17.9766C102.653 17.9653 102.678 18.0044 102.613 17.9105L102.806 17.2423C101.344 17.9687 99.8978 18.7268 98.4439 19.4693L98.4207 19.4812L98.4015 19.4937C96.8925 20.4768 94.9632 20.7601 93.0966 20.8271C92.149 20.8503 91.2009 20.8223 90.2563 20.7432C89.3074 20.6748 88.3591 20.5601 87.4147 20.4129C85.5231 20.1299 83.6519 19.7006 81.7885 19.239C79.9224 18.7704 78.088 18.2257 76.2473 17.6144Z" fill="#606060"/>
<path d="M64.5625 3.14911C65.4688 4.21373 66.397 5.24853 67.3297 6.27774L70.1251 9.3605C71.0568 10.3862 71.9809 11.4184 72.8974 12.4569C73.8076 13.5019 74.7078 14.553 75.602 15.6287C74.9382 14.3966 74.177 13.2195 73.3258 12.1086C72.4884 10.9881 71.5783 9.92724 70.649 8.88576C69.7074 7.8553 68.7359 6.85332 67.7234 5.89374C66.7181 4.92467 65.663 4.00856 64.5625 3.14911Z" fill="#606060"/>
<path d="M59.7235 3.65845C58.974 5.01836 58.3112 6.42429 57.7391 7.86784C57.1576 9.30747 56.6496 10.7751 56.2151 12.2709C55.7843 13.7675 55.4484 15.2899 55.2094 16.8289C54.9716 18.3693 54.9054 19.9314 55.0119 21.4864C55.1795 19.955 55.4267 18.4333 55.7526 16.9276C56.0834 15.4285 56.4722 13.9432 56.8946 12.4663C57.3117 10.9872 57.7845 9.52315 58.2558 8.05612C58.7413 6.5938 59.2197 5.12571 59.7235 3.65845Z" fill="#606060"/>
<path d="M88.3756 14.4826C87.5395 14.4941 86.7047 14.5526 85.8751 14.6577C85.0478 14.7508 84.228 14.8845 83.4097 15.0262C82.5936 15.1808 81.7793 15.3442 80.9722 15.5481C80.1586 15.7416 79.3567 15.981 78.5702 16.2654C79.4064 16.2547 80.2413 16.1966 81.0709 16.0913C81.8981 15.998 82.7179 15.8643 83.5361 15.7218C84.352 15.5663 85.1664 15.4029 85.9734 15.1988C86.7869 15.0052 87.5889 14.7661 88.3756 14.4826V14.4826Z" fill="#606060"/>
<path d="M88.3756 20.9052C88.3624 21.6154 88.3998 22.3243 88.4504 23.0343C88.4959 23.7509 88.5981 24.4628 88.7559 25.1634C88.8341 25.5418 88.9768 25.904 89.1779 26.234C89.3588 26.5041 89.5348 26.8198 89.7102 27.1204C90.0638 27.7275 90.4052 28.3454 90.7459 28.9627C91.4347 30.1936 92.112 31.4307 92.7779 32.6738C93.1048 33.2977 93.443 33.9158 93.7558 34.5433C93.9133 34.8565 94.0625 35.1725 94.2086 35.4863C94.2799 35.6435 94.3479 35.8013 94.4067 35.9569C94.4329 36.0331 94.4644 36.1132 94.4798 36.1813C94.4896 36.21 94.4962 36.2398 94.4993 36.2699C94.5004 36.2756 94.5054 36.3041 94.5051 36.2916C94.5051 36.2797 94.5082 36.268 94.514 36.2576C94.5197 36.2472 94.5281 36.2385 94.5382 36.2322L94.6681 36.141C94.4267 36.1984 94.1784 36.2218 93.9305 36.2105C93.6656 36.2 93.4023 36.1645 93.1441 36.1046C92.8812 36.043 92.6224 35.9651 92.3692 35.8714C92.1134 35.7739 91.8632 35.6625 91.6196 35.5376L91.5838 35.5196L91.56 35.5243C91.3115 35.5713 91.0786 35.6792 90.882 35.8382C90.6942 35.9965 90.56 36.209 90.4979 36.4466C90.5909 36.2316 90.7481 36.0506 90.948 35.9284C91.1382 35.8083 91.3548 35.7363 91.579 35.7185L91.5196 35.7053C91.9891 36.0308 92.502 36.2887 93.0432 36.4715C93.321 36.5612 93.6066 36.6244 93.8963 36.6603C94.2027 36.7027 94.5141 36.6925 94.8171 36.6299L94.9043 36.6106L94.9472 36.5386C94.9811 36.4809 95.0046 36.4177 95.0167 36.3518C95.0208 36.3152 95.0211 36.2784 95.0177 36.2417C95.0162 36.1836 95.0086 36.1258 94.9949 36.0693C94.9756 35.973 94.9512 35.8779 94.9218 35.7842C94.8665 35.6051 94.8045 35.4338 94.7399 35.2646C94.6112 34.9267 94.4656 34.5997 94.3181 34.2747C94.0208 33.6261 93.7137 32.9851 93.3847 32.3557C92.738 31.0914 92.0469 29.8532 91.3348 28.6265C90.973 28.016 90.605 27.4099 90.2253 26.8075C90.0315 26.5051 89.842 26.2143 89.6117 25.9088C89.4337 25.6398 89.2993 25.3444 89.2134 25.0334C88.8351 23.6793 88.5551 22.2997 88.3756 20.9052V20.9052Z" fill="#606060"/>
<path d="M86.5928 38.2107C88.6303 35.0696 91.5696 36.4466 91.5696 36.4466C91.5696 36.4466 92.7052 52.0486 85.7439 52.473C80.446 52.7961 75.8875 49.579 72.6823 46.1146C71.0221 44.3113 69.9715 42.0314 69.6793 39.5977C69.2443 36.0441 68.5912 30.6756 68.4253 29.1269C68.1706 26.7499 67.2074 20.5259 63.7561 20.9052C63.7561 20.9052 56.54 20.977 60.2754 33.4566C60.2754 33.4566 61.2941 41.2669 54.6723 40.3331C54.6723 40.3331 56.0306 36.4279 54.2478 33.4566C52.465 30.4853 50.1212 26.7288 50.232 24.15C50.232 24.15 73.6039 17.2417 76.2356 17.6661C74.6159 18.5212 73.313 19.8732 72.5184 21.5235C71.7238 23.1737 71.4794 25.0353 71.8211 26.8348C72.5975 31.8813 76.3323 38.6535 78.0653 41.5901C78.3401 42.0585 78.7367 42.4437 79.2129 42.7047C79.6891 42.9657 80.2271 43.0928 80.7698 43.0725C81.7735 43.0321 82.925 42.8852 83.4729 42.4555C84.5553 41.6065 86.5928 38.2107 86.5928 38.2107Z" fill="#606060"/>
<path d="M86.8427 23.244C86.3465 22.8619 85.7786 22.5834 85.1727 22.425C84.5562 22.2516 83.9121 22.1979 83.2754 22.2667C82.6245 22.3446 82.0054 22.5913 81.4794 22.9824C80.9682 23.3642 80.5757 23.8832 80.3476 24.4791C80.7769 24.0759 81.2564 23.7297 81.7743 23.4491C82.2711 23.1955 82.8092 23.0327 83.3633 22.9683C83.9304 22.9054 84.5026 22.9044 85.0699 22.9652C85.6497 23.0259 86.2361 23.121 86.8427 23.244Z" fill="#606060"/>
<path d="M66.8123 31.9285C65.6742 32.3748 64.3571 32.3244 63.5143 31.5772C63.0893 31.2005 62.7499 30.737 62.5191 30.2181C62.2706 29.6845 62.0716 29.1293 61.9244 28.5595C61.5962 27.4103 61.4022 26.227 61.3462 25.0332C61.32 24.4341 61.3351 23.8338 61.3912 23.2367C61.4193 22.9365 61.4629 22.6379 61.5216 22.3421C61.5481 22.1926 61.5859 22.047 61.6256 21.9003C61.6567 21.7519 61.7172 21.6112 61.8034 21.4864C61.5902 21.7152 61.4299 21.9881 61.3338 22.2857C61.2201 22.5765 61.1249 22.8742 61.049 23.177C60.9044 23.786 60.8191 24.4074 60.7941 25.0328C60.7487 26.2875 60.9003 27.5417 61.2434 28.7495C61.5837 29.9228 62.0786 31.2215 63.1819 32.0153C63.7244 32.4039 64.3852 32.5917 65.051 32.5466C65.6834 32.5047 66.2924 32.291 66.8123 31.9285V31.9285Z" fill="#606060"/>
<path d="M75.0478 48.3802C74.6316 48.6343 74.2468 48.9367 73.9014 49.281C73.5541 49.6157 73.234 49.9776 72.9441 50.3631C72.65 50.7522 72.3966 51.1705 72.1878 51.6114C71.9444 52.0554 71.8458 52.5645 71.906 53.0673C72.11 52.6475 72.3637 52.2537 72.6617 51.8945C72.9419 51.5257 73.2351 51.1634 73.5106 50.7864C73.7908 50.4122 74.0633 50.029 74.3242 49.6328C74.5957 49.2335 74.8376 48.8149 75.0478 48.3802V48.3802Z" fill="#606060"/>
<path d="M54.6723 40.3331C54.2225 41.0289 53.8128 41.7498 53.445 42.4922C53.2591 42.8472 53.0752 43.1976 52.8683 43.5315C52.6639 43.8831 52.4141 44.2064 52.1254 44.4929C52.5746 44.4303 52.9882 44.214 53.2959 43.8808C53.6103 43.5723 53.8721 43.2144 54.0709 42.8213C54.2707 42.4395 54.4244 42.0354 54.529 41.6175C54.6434 41.1994 54.6917 40.7661 54.6723 40.3331V40.3331Z" fill="#606060"/>
<path d="M44.3132 38.548C44.3132 38.548 52.5011 39.1462 53.8842 42.4147L53.6353 42.8837L52.7213 42.4147C48.3282 40.2277 45.8445 43.1325 48.8977 43.6446C51.9556 44.1518 70.1644 52.493 70.1644 52.493C78.0605 54.7278 82.6881 66.7346 82.6881 66.7346C81.4151 66.1891 80.1183 65.7009 78.831 65.1793C77.5102 64.7534 76.199 64.294 74.8638 63.916C72.1829 63.159 69.4492 62.6039 66.6854 62.2554C63.9168 61.899 61.1201 61.8125 58.3347 61.997C57.6408 62.0735 56.9469 62.1166 56.253 62.2171C55.5687 62.3367 54.8748 62.4181 54.1952 62.5808C52.8284 62.8494 51.4972 63.2749 50.228 63.849C51.5479 63.4543 52.9017 63.1836 54.2718 63.0402C54.9513 62.9349 55.6405 62.9014 56.32 62.8392C57.0043 62.7961 57.6886 62.7722 58.3729 62.7387C61.1131 62.6971 63.8526 62.8523 66.5705 63.2029L68.6091 63.4661L70.6382 63.8251L71.6527 63.9925L72.6577 64.2127C73.3324 64.361 74.0024 64.5046 74.6771 64.6433C76.0171 64.9544 77.3474 65.3085 78.6922 65.6292C80.0226 65.9929 81.3433 66.3949 82.6881 66.7346C103.4 70.1323 123.609 82.8665 124.963 82.5268C126.322 82.187 127.514 71.4914 127.514 68.7398C127.514 65.9929 128.021 60.791 132.098 60.791C136.171 60.791 135.664 64.3562 135.664 64.3562C128.021 66.3949 145.68 67.9262 150.944 68.601C156.208 69.2805 153.322 67.2467 153.322 67.2467C153.322 67.2467 154.849 65.6148 156.485 67.6439C156.996 68.2984 157.34 69.067 157.489 69.8839C157.637 70.7007 157.585 71.5413 157.337 72.3337C156.815 74.0756 156.045 76.7172 155.528 78.7893C154.676 82.187 151.623 106.636 150.604 109.015C149.585 111.388 128.533 117.672 83.7074 114.446C80.0752 113.877 76.4574 113.274 72.8395 112.671C69.2265 112.053 65.6134 111.422 62.0291 110.689C60.2345 110.331 58.4399 109.957 56.6645 109.531C54.8795 109.125 53.1089 108.673 51.3526 108.177C49.5954 107.684 47.8641 107.102 46.1651 106.435C44.4448 105.816 42.8426 104.908 41.4275 103.75C42.051 104.433 42.7661 105.025 43.5523 105.512C44.3299 106.014 45.1387 106.466 45.9737 106.866C47.65 107.646 49.3728 108.322 51.1325 108.89C54.6456 110.006 58.2199 110.92 61.8377 111.627C65.4507 112.345 69.0813 112.939 72.7294 113.408C76.376 113.891 80.0369 114.245 83.7074 114.446C83.7074 114.446 85.3392 124.366 86.191 133.291H22.3429C22.4099 124.577 22.4243 113.03 22.1563 102.645C21.649 82.613 22.1563 73.1855 22.1563 73.1855C23.0743 73.0841 23.981 72.8982 24.8649 72.6304C25.7502 72.3768 26.6164 72.0753 27.4825 71.7642C29.2101 71.1421 30.8946 70.4147 32.5695 69.6682C34.2349 68.9073 35.8811 68.1129 37.5034 67.2563C39.1257 66.4092 40.7288 65.5143 42.2793 64.5285C40.5517 65.1602 38.8625 65.8637 37.1828 66.5863C35.503 67.2994 33.8425 68.0554 32.1723 68.7972L27.2002 71.0751C25.5301 71.8121 23.8982 72.6065 22.1563 73.1855C22.1563 73.1855 13.7529 77.0091 12.9873 67.3281C12.2264 57.6517 21.3954 36.7678 44.3132 38.548ZM40.7862 69.9888C39.9417 70.786 39.2049 71.6901 38.5945 72.6782C38.293 73.1711 38.0346 73.6927 37.7618 74.2096C37.5273 74.7408 37.3359 75.2863 37.1158 75.8271C37.0119 76.0979 36.9287 76.3763 36.867 76.6598L36.6468 77.502C36.4983 78.0615 36.3896 78.6308 36.3214 79.2057L36.2066 80.067L36.1491 80.4977L36.13 80.9284L36.0725 82.656L36.0582 83.0867L36.0869 83.5174L36.1491 84.3788C36.1874 84.953 36.2257 85.5225 36.2879 86.092C36.4793 87.2214 36.6612 88.3507 36.9052 89.4658C37.2163 90.5664 37.5178 91.6623 37.8623 92.7438C37.7236 91.6097 37.5465 90.4946 37.3694 89.3796C37.2354 88.2598 37.1589 87.1352 37.0296 86.0202L36.9866 84.3405L36.9626 83.503L36.9483 83.0867L36.977 82.6703L37.0631 81.0002L37.0823 80.5839L37.1445 80.1723L37.2689 79.3492C37.5496 77.1492 38.2154 75.0159 39.2358 73.0467C39.7641 72.0707 40.3963 71.1545 41.1212 70.3142C41.8445 69.4541 42.6912 68.7058 43.6336 68.0937C42.5766 68.546 41.6115 69.1883 40.7862 69.9888V69.9888ZM28.722 50.6075C29.0646 51.3283 29.6511 51.9046 30.3778 52.2345C30.7374 52.3986 31.1148 52.5206 31.5024 52.5982C31.8895 52.6531 32.2793 52.6866 32.6701 52.6987C33.0577 52.6796 33.4501 52.6796 33.8329 52.6317L34.9719 52.4451C35.3499 52.3685 35.7136 52.2585 36.0869 52.1628L37.1637 51.8709C37.8656 51.6876 38.5808 51.5596 39.3028 51.488C40.7653 51.3516 42.2372 51.3468 43.7006 51.4736C46.6581 51.7406 49.5886 52.2496 52.4629 52.9954C53.9081 53.3591 55.3533 53.7516 56.7842 54.1774C58.2246 54.5842 59.6411 55.0532 61.0672 55.5269C58.356 54.2206 55.5442 53.134 52.6591 52.2776C49.7675 51.3854 46.7908 50.7968 43.7772 50.5213C42.2519 50.4002 40.7186 50.4226 39.1975 50.5883C38.4317 50.6868 37.6749 50.8452 36.9339 51.0621L34.8044 51.7177L33.7372 51.9474C33.3783 52.0096 33.0194 52.0239 32.6605 52.0718C32.3016 52.0957 31.9427 52.067 31.5885 52.0574C31.2374 52.0103 30.8924 51.9253 30.5596 51.8038C29.8826 51.571 29.3108 51.1044 28.9469 50.4878C28.7589 50.1748 28.617 49.8363 28.5258 49.4828C28.4181 49.1256 28.3602 48.7552 28.3535 48.3822C28.2702 49.1437 28.3977 49.9134 28.722 50.6075H28.722Z" fill="#606060"/>
<path d="M113.08 133.293C103.657 133.02 94.2333 132.836 84.81 132.743C80.0983 132.678 75.3866 132.663 70.675 132.625L56.54 132.586L42.405 132.623C37.6933 132.663 32.9817 132.675 28.27 132.741C18.8466 132.833 9.4233 133.017 -3.90913e-06 133.293C9.42332 133.568 18.8466 133.752 28.27 133.845C32.9817 133.911 37.6933 133.923 42.405 133.963L56.54 134L70.675 133.961C75.3866 133.923 80.0983 133.908 84.81 133.843C94.2333 133.75 103.657 133.567 113.08 133.293Z" fill="#606060"/>
<path d="M85.2557 28.3687C83.4081 28.3687 83.4051 25.4974 85.2557 25.4974C87.1032 25.4974 87.1063 28.3687 85.2557 28.3687Z" fill="#606060"/>
</svg>
