<svg width="200" height="168" viewBox="0 0 200 168" fill="none" xmlns="http://www.w3.org/2000/svg">
<path d="M119.949 41.7774C119.949 41.7774 118.252 40.759 116.668 42.5695C116.668 42.5695 113.839 38.5501 101.845 42.0308C101.845 42.0308 103.429 45.0588 104.561 45.0588C105.692 45.0588 102.411 50.2638 99.3558 50.0374C99.3558 50.0374 94.1509 57.6186 98.1112 64.9734C102.014 72.2223 104.819 74.525 108.69 69.823C108.809 69.6771 108.942 69.543 109.086 69.4225C110.199 68.5043 115.129 64.6865 116.876 67.5333C117.248 68.1657 117.354 68.9197 117.172 69.6304C116.374 72.9702 112.646 85.2712 101.845 80.3619C101.845 80.3619 89.2587 75.642 92.2274 64.4605C92.5448 63.3232 93.0052 62.2308 93.5975 61.2093C94.1685 60.1659 94.5205 59.0168 94.6317 57.8325C94.7429 56.6482 94.6112 55.4537 94.2444 54.3222C93.7894 52.7091 92.763 51.3166 91.3568 50.4046C89.9934 49.5542 88.1961 49.174 86.8347 51.552C86.2712 52.5413 85.9741 53.6599 85.9726 54.7984C85.97 55.8404 86.1638 57.1184 87.0224 57.7317L85.9726 59.7684C85.4016 58.6067 84.6715 57.5302 83.8033 56.5701C82.3494 55.0976 81.4154 53.1911 81.143 51.1397C80.7587 47.8856 81.2214 43.0268 85.0988 37.3646C85.0988 37.3646 90.3038 26.9547 100.035 27.181C109.766 27.4073 118.139 30.0097 119.949 41.7774Z" fill="#606060"/>
<path d="M103.656 55.3555C105.346 54.9689 107.083 54.8258 108.813 54.9306C109.685 54.9739 110.55 55.1051 111.396 55.3222C112.258 55.5074 113.06 55.9081 113.726 56.487C112.957 56.13 112.136 55.8988 111.294 55.8022C110.462 55.6826 109.623 55.5956 108.776 55.5577C107.084 55.4528 105.383 55.4447 103.656 55.3555Z" fill="#606060"/>
<path d="M119.949 55.194C119.33 55.3821 118.758 55.6976 118.268 56.1203C118.036 56.3119 117.847 56.5502 117.713 56.8197C117.579 57.0893 117.504 57.384 117.492 57.6847C117.537 58.3015 117.699 58.9042 117.968 59.4611L118.708 61.2802C119.26 62.511 119.581 63.8329 119.654 65.1797C119.653 65.5346 119.588 65.8864 119.462 66.2182C119.327 66.554 119.105 66.8482 118.82 67.0713C118.241 67.436 117.557 67.5985 116.876 67.5332C117.515 67.4788 118.123 67.2356 118.623 66.8344C118.828 66.6155 118.983 66.3542 119.076 66.069C119.17 65.7839 119.2 65.4817 119.164 65.1837C119.115 64.5537 118.987 63.9323 118.783 63.3342C118.593 62.7216 118.366 62.1146 118.123 61.5098C117.891 60.9006 117.639 60.2948 117.413 59.671C117.305 59.356 117.195 59.0419 117.11 58.7098C117.004 58.3665 116.968 58.0054 117.004 57.6479C117.042 57.2925 117.158 56.9497 117.343 56.6442C117.529 56.3386 117.78 56.0778 118.078 55.8803C118.638 55.5056 119.28 55.2703 119.949 55.194V55.194Z" fill="#606060"/>
<path d="M119.949 41.7774C120.161 43.0457 120.319 44.3208 120.422 45.6027C120.54 46.8826 120.613 48.1663 120.641 49.4538C120.661 50.7411 120.641 52.0309 120.541 53.3215C120.482 54.6371 120.188 55.9315 119.673 57.1436C119.666 57.1587 119.656 57.1726 119.645 57.185C119.248 57.6125 118.875 58.0621 118.528 58.5316C118.356 58.7667 118.203 59.0152 118.071 59.2746C117.923 59.5272 117.864 59.8218 117.903 60.1117C117.812 59.82 117.829 59.5055 117.949 59.2248C118.053 58.9418 118.18 58.6675 118.328 58.4046C118.623 57.8806 118.965 57.384 119.348 56.9207L119.32 56.9618C119.539 56.3829 119.685 55.7789 119.755 55.1637C119.853 54.5432 119.893 53.9095 119.939 53.2781C120.014 52.0105 120.027 50.7353 120.034 49.4594C120.034 46.9057 119.978 44.3473 119.949 41.7774Z" fill="#606060"/>
<path d="M113.16 63.955C113.041 64.2006 112.944 64.4566 112.872 64.7199C112.798 64.9632 112.782 65.2203 112.825 65.4709C112.86 65.7192 112.969 65.9513 113.136 66.1375C113.314 66.3431 113.512 66.5307 113.726 66.6978C113.589 66.6572 113.454 66.6089 113.323 66.5532C113.194 66.4827 113.074 66.3995 112.962 66.3049C112.729 66.1027 112.571 65.8269 112.515 65.5231C112.476 65.2222 112.521 64.9162 112.645 64.6394C112.761 64.3744 112.938 64.1401 113.16 63.955V63.955Z" fill="#606060"/>
<path d="M87.0224 57.7317C87.414 58.2232 87.7264 58.7729 87.9485 59.3608C88.0675 59.661 88.1535 59.9731 88.2052 60.2919C88.233 60.4589 88.244 60.6283 88.2382 60.7976L88.235 60.9279L88.2426 60.9986C88.2397 61.0446 88.2498 61.0904 88.2717 61.131C88.3687 61.338 88.5402 61.5008 88.7519 61.5872C89.0032 61.7157 89.2679 61.816 89.5412 61.8862C90.1225 62.0429 90.7203 62.1296 91.3221 62.1445C90.7277 62.3775 90.0835 62.4546 89.4509 62.3684C89.1207 62.3348 88.7975 62.252 88.4918 62.1226C88.312 62.0529 88.1478 61.9482 88.0086 61.8147C87.8694 61.6812 87.758 61.5215 87.6809 61.3447C87.6402 61.2452 87.6204 61.1383 87.6225 61.0308L87.6202 60.8721L87.6251 60.7729C87.6321 60.636 87.629 60.4988 87.6159 60.3624C87.5908 60.0725 87.5455 59.7847 87.4804 59.501C87.3521 58.9197 87.1832 58.3352 87.0224 57.7317Z" fill="#606060"/>
<path d="M85.9726 59.7684C85.72 60.6836 85.364 61.567 84.9114 62.4015C84.4683 63.2483 83.9334 64.0438 83.3163 64.7737C82.699 65.5174 81.9667 66.1575 81.1473 66.67C80.3258 67.1794 79.3855 67.4654 78.4195 67.4997C79.3036 67.2341 80.1342 66.8155 80.8737 66.2629C81.5973 65.7063 82.2562 65.0702 82.8379 64.3665C83.4353 63.6637 83.9876 62.9239 84.4916 62.1513C84.9989 61.3751 85.5026 60.5881 85.9726 59.7684Z" fill="#606060"/>
<path d="M94.2641 86.2457C94.979 85.9321 95.6551 85.5364 96.2786 85.0667C96.8974 84.6047 97.4843 84.1016 98.0354 83.5608C98.6037 83.0361 99.1132 82.4493 99.6424 81.8749L100.413 80.9854C100.664 80.6819 100.914 80.3762 101.19 80.083C101.032 80.4501 100.849 80.8045 100.666 81.1614C100.46 81.5019 100.256 81.8477 100.029 82.1773C99.5698 82.8381 99.0482 83.4531 98.471 84.0135C97.891 84.5785 97.2438 85.07 96.544 85.477C95.85 85.8983 95.0714 86.1608 94.2641 86.2457V86.2457Z" fill="#606060"/>
<path d="M82.9441 64.5697C82.381 63.7353 81.6845 62.9992 80.8825 62.3909C80.7156 62.2434 80.5133 62.1416 80.2954 62.0954C80.0775 62.0491 79.8513 62.0601 79.6389 62.1271C79.2636 62.382 78.9942 62.7652 78.8814 63.2046C78.7267 63.6732 78.6154 64.155 78.5486 64.6439C78.5149 64.887 78.4851 65.14 78.4632 65.3739C78.4644 65.5966 78.484 65.8582 78.5063 66.1015C78.6037 67.0994 78.7887 68.0867 79.0591 69.0522C79.5571 71.0165 80.3308 72.9004 81.357 74.6478C82.3968 76.3945 83.6406 78.0114 85.0623 79.4643C85.7751 80.1853 86.5162 80.8795 87.2681 81.5561C88.0491 82.2004 88.7952 82.8924 89.6082 83.4839C90.0004 83.8007 90.4327 84.0578 90.8423 84.3477C91.2758 84.5969 91.692 84.8801 92.1437 85.0917C93.0163 85.566 93.9445 85.9298 94.907 86.1747C96.8291 86.6847 98.8716 86.4703 100.646 85.5723C102.429 84.6206 103.927 83.2115 104.985 81.4897C104.989 81.4823 104.996 81.4767 105.004 81.4742C105.012 81.4716 105.02 81.4724 105.028 81.4762C105.035 81.4805 105.04 81.4871 105.042 81.4948C105.045 81.5025 105.044 81.5108 105.041 81.5183C104.121 83.3879 102.673 84.9477 100.878 86.0057C99.9583 86.5273 98.9467 86.8665 97.8986 87.0047C96.8471 87.1289 95.7818 87.0612 94.7545 86.8048C93.7346 86.5625 92.753 86.1809 91.8372 85.6707C91.3696 85.4386 90.9451 85.1379 90.5014 84.8694C90.0851 84.5624 89.6445 84.2864 89.2495 83.954C88.4215 83.3319 87.6965 82.6055 86.9304 81.9231C86.5396 81.5905 86.2083 81.1937 85.8496 80.828C85.5039 80.449 85.1298 80.0979 84.8088 79.697C83.4692 78.1485 82.2526 76.4977 81.1703 74.7596C80.0682 73.0218 79.1904 71.1516 78.5579 69.1934C78.2492 68.2027 78.0475 67.1817 77.9564 66.148C77.9392 65.8832 77.9236 65.6361 77.9293 65.3488C77.9594 65.0765 77.9961 64.8233 78.0379 64.5629C78.1211 64.0431 78.2522 63.5321 78.4294 63.0364C78.5091 62.7629 78.6425 62.5079 78.8218 62.2864C79.0011 62.065 79.2227 61.8814 79.4737 61.7465C79.7558 61.6358 80.0682 61.6295 80.3547 61.7286C80.6151 61.8178 80.8582 61.9509 81.0736 62.1223C81.8643 62.796 82.5176 63.6159 82.9978 64.5371C82.9998 64.5407 83.0011 64.5446 83.0017 64.5487C83.0022 64.5528 83.0019 64.557 83.0008 64.561C82.9997 64.5649 82.9978 64.5687 82.9953 64.5719C82.9928 64.5752 82.9896 64.5779 82.9861 64.58C82.979 64.5835 82.9709 64.5845 82.9632 64.5826C82.9555 64.5807 82.9487 64.5761 82.9441 64.5697V64.5697Z" fill="#606060"/>
<path d="M53.8147 73.1202C54.6387 73.3539 55.3865 73.801 55.9825 74.4162C56.5967 75.0217 57.0878 75.7404 57.429 76.5325C57.7708 77.3201 57.963 78.1645 57.9958 79.0224C58.0121 79.4447 57.9905 79.8676 57.9311 80.286C57.8592 80.7011 57.7494 81.1089 57.6032 81.504C57.4565 81.0952 57.3904 80.7005 57.2826 80.315C57.167 79.9317 57.0976 79.5502 56.9691 79.1854C56.7641 78.4611 56.5128 77.7508 56.2167 77.0587C55.9196 76.3706 55.5723 75.7053 55.1775 75.0682C54.764 74.3913 54.3088 73.7407 53.8147 73.1202V73.1202Z" fill="#606060"/>
<path d="M56.698 88.9613C56.9526 91.8956 57.0768 94.829 57.1552 97.7621C57.2418 100.695 57.251 103.628 57.2454 106.561C57.215 109.493 57.168 112.425 57.044 115.357C56.9283 118.289 56.7657 121.221 56.4716 124.151C56.2153 121.217 56.0904 118.284 56.0124 115.35C55.9262 112.417 55.9169 109.485 55.9242 106.552C55.9562 103.62 56.0032 100.687 56.1276 97.7555C56.2436 94.8236 56.4056 91.8921 56.698 88.9613Z" fill="#606060"/>
<path d="M117.211 69.5769C119.631 71.0915 122.008 72.6691 124.34 74.3096C125.507 75.1288 126.665 75.9627 127.813 76.8114L129.521 78.1165C129.821 78.3412 130.103 78.5882 130.365 78.8554L130.771 79.2793L131.113 79.7126C131.999 80.8545 132.807 82.0547 133.531 83.305C134.261 84.5369 134.972 85.777 135.663 87.0253C137.028 89.5329 138.435 92.0125 139.882 94.464C140.606 95.6908 141.343 96.9096 142.095 98.1202L143.219 99.9351C143.552 100.529 143.948 101.085 144.4 101.594C144.879 102.063 145.449 102.529 145.945 103.114C146.533 103.726 146.887 104.525 146.945 105.372C146.9 106.24 146.522 107.057 145.889 107.653C145.619 107.926 145.334 108.185 145.037 108.429C144.771 108.644 144.513 108.869 144.26 109.101C143.751 109.568 143.283 110.059 142.807 110.587C142.323 111.122 141.821 111.642 141.312 112.155C140.284 113.182 139.193 114.142 138.044 115.032C136.873 115.938 135.599 116.702 134.247 117.308C133.538 117.608 132.794 117.814 132.031 117.921C131.231 118.04 130.414 117.969 129.646 117.714C129.524 117.677 129.419 117.596 129.353 117.486L129.349 117.479C128.853 116.657 128.31 115.838 127.76 115.035C127.211 114.23 126.636 113.443 126.035 112.676C125.432 111.915 124.788 111.187 124.104 110.497C123.447 109.787 122.641 109.23 121.745 108.865L121.74 108.863C121.724 108.858 121.711 108.846 121.703 108.831C121.696 108.817 121.694 108.799 121.698 108.783C121.703 108.767 121.713 108.753 121.727 108.745C121.741 108.736 121.758 108.733 121.775 108.736C122.754 108.989 123.66 109.47 124.418 110.141C125.195 110.769 125.923 111.456 126.596 112.195C127.948 113.659 129.19 115.221 130.313 116.868L130.016 116.634C131.275 116.89 132.584 116.7 133.717 116.095C134.955 115.506 136.118 114.771 137.182 113.908C138.285 113.051 139.34 112.134 140.342 111.161C140.848 110.677 141.35 110.185 141.835 109.677C142.326 109.16 142.856 108.633 143.41 108.151C143.688 107.909 143.973 107.674 144.268 107.449C144.535 107.227 144.788 107.036 145.011 106.81C145.444 106.437 145.727 105.919 145.807 105.353C145.773 104.766 145.539 104.209 145.144 103.773C144.739 103.252 144.228 102.78 143.731 102.213C143.6 102.065 143.478 101.91 143.364 101.748L143.078 101.263L142.562 100.317L141.554 98.4301C140.889 97.1693 140.21 95.9174 139.517 94.6742C138.126 92.1899 136.66 89.7469 135.072 87.3839C133.498 85.0244 131.901 82.6355 130.195 80.4556L129.873 80.0525L129.537 79.7088C129.306 79.4621 129.056 79.2345 128.789 79.0279L127.127 77.7078L123.772 75.0734C121.53 73.3191 119.317 71.5226 117.133 69.6839C117.12 69.6731 117.112 69.6578 117.11 69.6412C117.108 69.6245 117.112 69.6077 117.122 69.5941C117.132 69.5806 117.146 69.5712 117.163 69.568C117.179 69.5649 117.196 69.568 117.211 69.5769V69.5769Z" fill="#606060"/>
<path d="M126.059 90.9226C124.902 95.2709 123.81 99.6301 122.897 104.006C122.428 106.175 122.1 108.373 121.916 110.585C121.853 111.648 121.847 112.822 121.753 113.96C121.662 115.121 121.468 116.271 121.173 117.397C120.479 119.623 119.366 121.696 117.894 123.505C117.214 124.412 116.493 125.289 115.819 126.17C115.494 126.607 115.165 127.041 114.873 127.51C114.561 127.961 114.278 128.436 113.997 128.913C112.89 130.847 111.901 132.847 111.033 134.9C110.119 136.945 109.33 139.047 108.559 141.162C109.54 136.741 111.064 132.459 113.095 128.412C113.62 127.389 114.221 126.407 114.893 125.474C115.559 124.552 116.242 123.673 116.885 122.763C118.239 121.062 119.262 119.121 119.9 117.043C120.184 115.996 120.374 114.927 120.468 113.847C120.573 112.745 120.57 111.67 120.671 110.491C120.907 108.226 121.316 105.983 121.895 103.78C123.004 99.409 124.395 95.1142 126.059 90.9226V90.9226Z" fill="#606060"/>
<path d="M175.927 149.806C175.664 149.806 175.412 149.702 175.226 149.516C175.04 149.33 174.935 149.078 174.935 148.815C174.935 148.552 175.039 148.3 175.225 148.114C175.411 147.928 175.663 147.823 175.926 147.823L199.007 147.792H199.008C199.138 147.792 199.267 147.818 199.387 147.868C199.508 147.917 199.617 147.99 199.709 148.082C199.801 148.174 199.874 148.284 199.924 148.404C199.974 148.524 200 148.653 200 148.783C200 148.914 199.975 149.042 199.925 149.163C199.875 149.283 199.802 149.392 199.71 149.485C199.618 149.577 199.509 149.65 199.389 149.7C199.268 149.75 199.139 149.775 199.009 149.775L175.929 149.806H175.927Z" fill="#606060"/>
<path d="M29.1016 149.148L0 149.423L0.0187193 151.406L29.1203 151.131L29.1016 149.148Z" fill="#606060"/>
<path d="M109.766 59.5798C110.01 59.5713 110.242 59.4683 110.412 59.2924C110.582 59.1165 110.677 58.8815 110.677 58.6369C110.677 58.3923 110.582 58.1572 110.412 57.9813C110.242 57.8054 110.01 57.7024 109.766 57.6939C109.521 57.7024 109.29 57.8054 109.12 57.9813C108.95 58.1572 108.855 58.3923 108.855 58.6369C108.855 58.8815 108.95 59.1165 109.12 59.2924C109.29 59.4683 109.521 59.5713 109.766 59.5798V59.5798Z" fill="#606060"/>
<path d="M134.721 157.329C138.053 159.601 141.803 161.189 145.754 162.001C147.715 162.379 149.715 162.522 151.71 162.428C153.7 162.32 155.672 161.985 157.587 161.43C161.411 160.266 165.019 158.484 168.268 156.154C169.083 155.603 169.854 154.99 170.573 154.318C171.29 153.637 171.966 152.914 172.596 152.153C173.857 150.629 174.948 148.973 175.85 147.212L175.787 147.48L175.787 147.473L175.787 147.459C175.788 147.372 175.81 147.285 175.849 147.207C176.629 145.677 177.265 144.079 177.751 142.432C178.234 140.778 178.546 139.079 178.682 137.361L178.685 137.325L178.689 137.302C178.698 137.268 178.687 137.284 178.698 137.345L178.692 137.241C178.964 133.764 178.475 130.269 177.26 127C176.018 123.736 174.096 120.774 171.621 118.311C169.175 115.89 166.269 113.983 163.073 112.704C159.878 111.425 156.459 110.8 153.018 110.865C149.576 110.929 146.183 111.683 143.038 113.082C139.894 114.48 137.061 116.495 134.708 119.006C132.348 121.527 130.511 124.491 129.304 127.726C128.101 131.003 127.542 134.482 127.657 137.971C127.658 137.98 127.656 137.989 127.653 137.997C127.65 138.005 127.645 138.013 127.639 138.019C127.633 138.026 127.625 138.031 127.617 138.035C127.609 138.039 127.6 138.041 127.591 138.041C127.574 138.041 127.557 138.035 127.545 138.023C127.532 138.012 127.524 137.996 127.522 137.979C127.101 134.44 127.439 130.852 128.514 127.455C129.597 124.021 131.394 120.856 133.789 118.167C136.19 115.458 139.134 113.283 142.429 111.784C145.73 110.287 149.313 109.513 152.938 109.512C156.54 109.477 160.108 110.2 163.412 111.634C166.715 113.068 169.68 115.181 172.113 117.837C174.523 120.457 176.402 123.52 177.646 126.855C178.889 130.197 179.489 133.743 179.416 137.307L179.41 137.203C179.425 137.283 179.424 137.365 179.406 137.445L179.413 137.386C179.365 139.172 179.13 140.949 178.714 142.687C178.303 144.432 177.701 146.126 176.918 147.739L176.981 147.473L176.981 147.48C176.982 147.569 176.963 147.656 176.923 147.736L176.918 147.747C176.002 149.608 174.858 151.346 173.511 152.923C172.841 153.711 172.124 154.459 171.364 155.162C170.591 155.856 169.767 156.492 168.899 157.065C165.533 159.429 161.788 161.199 157.825 162.298C153.843 163.38 149.659 163.482 145.63 162.597C141.653 161.648 137.914 159.894 134.644 157.441C134.629 157.431 134.62 157.415 134.617 157.398C134.614 157.38 134.618 157.362 134.628 157.347C134.638 157.333 134.653 157.323 134.671 157.319C134.688 157.316 134.706 157.319 134.721 157.329L134.721 157.329Z" fill="#606060"/>
<path d="M140.551 113.657C140.37 114.143 140.218 114.636 140.064 115.126C139.913 115.618 139.766 116.109 139.634 116.604C139.487 117.093 139.368 117.592 139.251 118.091L138.868 119.573L138.888 119.449C138.886 119.505 138.875 119.561 138.855 119.613C138.832 119.678 138.795 119.736 138.748 119.786C138.7 119.836 138.643 119.875 138.58 119.903C138.517 119.93 138.449 119.945 138.381 119.946L138.862 119.579C138.584 121.015 138.24 122.427 137.947 123.854C137.679 125.286 137.409 126.718 137.182 128.16C136.947 129.601 136.713 131.043 136.516 132.497C136.291 133.947 136.078 135.404 135.825 136.864C135.693 135.389 135.65 133.907 135.695 132.426C135.72 130.944 135.821 129.465 135.999 127.993C136.184 126.523 136.406 125.054 136.73 123.604C136.877 122.876 137.075 122.159 137.278 121.444C137.482 120.729 137.67 120.011 137.891 119.302L138.373 118.936C138.306 118.937 138.24 118.951 138.179 118.978C138.117 119.004 138.062 119.043 138.015 119.092C137.969 119.14 137.934 119.197 137.91 119.26C137.891 119.311 137.881 119.365 137.879 119.419L137.899 119.295C138.264 118.317 138.601 117.335 139.034 116.385C139.455 115.431 139.963 114.518 140.551 113.657V113.657Z" fill="#606060"/>
<path d="M166.208 113.657C167.108 115.207 167.853 116.844 168.429 118.542C168.749 119.383 168.976 120.25 169.252 121.106C169.497 121.969 169.701 122.843 169.926 123.713C170.71 127.217 171.213 130.777 171.432 134.361C171.658 137.937 171.661 141.524 171.441 145.1C171.331 146.886 171.131 148.665 170.96 150.442C170.686 152.21 170.448 153.979 170.133 155.736C170.162 153.947 170.276 152.171 170.339 150.394L170.45 145.066C170.441 144.178 170.437 143.291 170.443 142.405L170.448 141.076L170.4 139.748L170.33 137.093L170.166 134.444C169.956 130.913 169.553 127.397 168.959 123.91L168.449 121.307C168.244 120.448 168.079 119.574 167.837 118.724C167.427 116.995 166.882 115.301 166.208 113.657V113.657Z" fill="#606060"/>
<path d="M152.8 148.577C153.208 148.167 153.556 147.699 153.831 147.189C153.824 147.784 153.811 148.372 153.798 148.967C153.712 153.264 153.547 157.56 153.302 161.857C153.057 157.56 152.892 153.264 152.806 148.967C152.806 148.835 152.8 148.709 152.8 148.577Z" fill="#606060"/>
<path d="M152.978 144.327C152.978 144.327 153.414 143.805 153.89 143.117C153.884 143.785 153.877 144.459 153.864 145.127C153.635 144.795 153.332 144.521 152.978 144.327V144.327Z" fill="#606060"/>
<path d="M153.937 135.437V136.706L153.917 139.819C153.499 139.853 153.086 139.935 152.687 140.064C152.681 138.94 152.674 137.823 152.667 136.706V135.437C152.694 127.049 152.813 118.667 153.302 110.279C153.784 118.667 153.91 127.049 153.937 135.437Z" fill="#606060"/>
<path d="M129.859 125.327C133.531 123.695 137.375 122.479 141.318 121.703C145.266 120.896 149.283 120.469 153.313 120.429C155.329 120.369 157.342 120.531 159.354 120.643C160.356 120.755 161.354 120.9 162.353 121.027C162.852 121.098 163.353 121.149 163.849 121.235L165.328 121.552C169.271 122.344 173.102 123.611 176.739 125.327C175.774 125.052 174.816 124.766 173.866 124.47L172.44 124.031C171.963 123.893 171.469 123.809 170.985 123.695L168.085 123.02C167.112 122.834 166.129 122.693 165.153 122.527L163.688 122.287C163.197 122.223 162.703 122.184 162.211 122.131C161.226 122.035 160.243 121.922 159.258 121.841C157.28 121.768 155.307 121.618 153.327 121.698C149.364 121.732 145.408 122.059 141.493 122.674L138.559 123.183C137.588 123.388 136.609 123.57 135.64 123.795C133.692 124.209 131.771 124.738 129.859 125.327Z" fill="#606060"/>
<path d="M152.714 150.719L158.793 149.934C160.804 149.651 162.811 149.35 164.805 148.988C166.802 148.645 168.79 148.24 170.775 147.814C171.758 147.567 172.75 147.343 173.748 147.124L174.5 146.969L175.239 146.777C175.734 146.651 176.234 146.534 176.741 146.422C176.286 146.658 175.825 146.887 175.358 147.108C174.896 147.337 174.421 147.541 173.937 147.718C172.975 148.08 172.007 148.438 171.03 148.772C169.062 149.389 167.056 149.879 165.025 150.238C160.966 150.986 156.819 151.148 152.714 150.719Z" fill="#606060"/>
<path d="M127.517 136.071C128.819 135.992 130.121 135.926 131.423 135.873C131.068 135.968 130.719 136.085 130.379 136.223C129.42 136.177 128.469 136.124 127.517 136.071Z" fill="#606060"/>
<path d="M179.087 136.071C174.791 136.316 170.494 136.481 166.198 136.567C162.106 136.66 158.021 136.693 153.937 136.706H152.667C152.152 136.706 151.643 136.699 151.127 136.699C151.18 136.151 150.909 135.787 150.142 135.747C149.467 135.729 148.807 135.949 148.278 136.369C148.159 136.461 148.027 136.56 147.875 136.673C143.863 136.646 139.853 136.569 135.845 136.441C135.829 136.299 135.784 136.161 135.714 136.036C135.644 135.911 135.549 135.802 135.435 135.714C141.179 135.516 146.923 135.457 152.667 135.437H153.937C158.021 135.45 162.106 135.483 166.198 135.575C170.494 135.655 174.791 135.82 179.087 136.071Z" fill="#606060"/>
<path d="M138.383 119.434C138.383 119.435 138.383 119.436 138.383 119.437C138.383 119.437 138.382 119.438 138.382 119.439C138.381 119.439 138.38 119.44 138.379 119.44C138.379 119.441 138.378 119.441 138.377 119.441C137.765 120.596 137.288 121.818 136.956 123.083C136.949 123.096 136.949 123.116 136.942 123.129C136.447 125.039 136.691 125.39 136.037 127.273C135.667 128.338 135.336 128.952 135.521 129.831C135.697 130.385 135.921 130.922 136.189 131.438C136.268 131.603 136.348 131.781 136.44 131.98C136.896 132.984 137.009 133.222 136.909 133.526C136.784 133.897 136.493 133.943 135.958 134.267C135.769 134.377 135.59 134.503 135.422 134.643C135.105 134.882 134.812 135.152 134.55 135.45C132.568 135.429 130.617 135.938 128.898 136.924C128.488 137.155 128.046 137.387 127.57 137.631H127.563C127.543 137.347 127.537 137.063 127.523 136.778C127.517 136.541 127.517 136.309 127.517 136.071C127.512 132.362 128.31 128.695 129.857 125.323L129.863 125.317H129.87C130.491 123.951 131.235 122.643 132.091 121.41C134.966 118.608 138.066 117.154 139.097 117.16C139.209 117.15 139.32 117.183 139.408 117.253C139.639 117.484 139.084 118.119 138.383 119.434Z" fill="#606060"/>
<path d="M179.087 136.071C179.087 136.289 179.087 136.508 179.074 136.726C179.074 136.911 179.061 137.089 179.054 137.274C179.054 137.307 179.048 137.34 179.048 137.373C179.046 137.566 179.035 137.757 179.014 137.948C178.782 141.251 177.908 144.478 176.443 147.447C176.425 147.458 176.405 147.467 176.384 147.473V147.48C176.211 147.562 176.025 147.616 175.835 147.639C175.613 147.661 175.388 147.636 175.176 147.566C174.964 147.495 174.77 147.38 174.606 147.229C174.599 147.222 174.592 147.209 174.579 147.202C174.044 146.614 174.473 145.794 174.302 144.565C174.156 143.547 173.621 142.827 172.557 141.392C172.093 140.733 171.576 140.114 171.01 139.541C170.62 139.165 170.256 138.933 169.999 139.039C169.675 139.185 169.576 139.872 169.694 140.374C169.873 141.128 170.481 141.194 170.613 141.802C170.792 142.602 169.979 143.527 169.285 143.95C168.897 144.211 168.449 144.367 167.983 144.403C167.517 144.439 167.05 144.353 166.627 144.155C165.676 143.6 165.702 142.417 165.193 142.417C164.79 142.423 164.433 143.164 164.373 143.745C164.327 144.109 164.389 144.479 164.553 144.807C164.716 145.135 164.974 145.408 165.292 145.59C165.947 145.867 166.37 145.292 167.136 145.59C167.366 145.665 167.571 145.799 167.733 145.979C167.894 146.159 168.005 146.378 168.055 146.614C168.088 147.242 167.229 147.731 166.112 148.352C164.836 149.06 164.44 149.027 162.939 149.787C162.794 149.86 162.662 149.926 162.536 149.992C161.949 150.262 161.399 150.604 160.897 151.01C159.866 151.856 159.965 152.232 158.953 153.059C158.293 153.672 157.48 154.096 156.6 154.288C155.8 154.42 155.635 154.176 154.247 154.083C153.933 154.061 153.617 154.054 153.302 154.063C152.694 154.072 152.088 154.111 151.484 154.182C150.778 154.252 150.077 154.374 149.389 154.546C152.932 152.741 153.401 150.012 151.927 149.364C151.927 149.364 156.118 146.184 152.978 144.327C152.978 144.327 158.054 138.286 152.324 140.176C151.847 140.339 151.394 140.564 150.975 140.844C150.797 140.956 150.592 141.095 150.36 141.24L149.68 139.508V139.502C151.021 137.678 151.92 135.833 150.142 135.747C149.467 135.729 148.807 135.949 148.278 136.369C147.869 136.679 147.28 137.116 146.54 137.618L145.04 136.071C144.697 135.514 144.487 134.885 144.425 134.234C144.397 133.515 144.52 132.798 144.784 132.129C145.048 131.46 145.448 130.854 145.958 130.347C146.9 129.349 148.106 128.639 149.435 128.298C150.478 127.895 151.604 127.754 152.714 127.888C152.899 127.921 153.097 127.961 153.302 128.014C153.95 128.166 154.617 128.391 154.961 128.503C155.546 128.768 156.168 128.942 156.805 129.019C157.638 129.058 157.869 128.807 158.233 129.019C158.689 129.27 158.616 129.799 158.953 131.061C159.29 132.31 159.568 133.368 160.282 133.619C160.817 133.804 161.108 133.368 161.716 133.619C162.113 133.784 162.113 134.022 162.734 134.644C163.283 135.186 163.56 135.457 163.964 135.562C164.348 135.65 164.75 135.619 165.116 135.472C165.482 135.326 165.795 135.071 166.013 134.743C166.092 134.604 166.237 134.313 166.112 133.11C165.96 131.59 165.887 130.83 165.398 130.347C164.803 129.759 164.34 130.188 162.939 129.732C161.333 129.21 161.452 128.483 159.667 127.789C158.471 127.326 158.154 127.545 157.215 126.969C156.455 126.507 155.49 125.647 155.675 125.125C155.88 124.57 157.202 125 157.724 124.207C158.134 123.592 157.565 122.99 158.028 122.157C158.299 121.682 158.861 121.225 159.257 121.344C159.694 121.47 159.528 122.177 160.077 123.083C160.585 123.857 161.343 124.433 162.225 124.716C162.893 124.96 163.719 125.264 164.373 124.821C164.955 124.431 165.279 123.539 164.988 123.083C164.611 122.495 163.468 122.997 163.144 122.468C163.091 122.341 163.064 122.205 163.065 122.068C163.066 121.93 163.095 121.794 163.151 121.668C163.236 121.376 163.392 121.108 163.606 120.891C163.819 120.673 164.083 120.511 164.373 120.419C164.711 120.366 165.054 120.492 167.037 122.157C167.143 122.25 167.249 122.336 167.341 122.415L167.348 122.422C168.399 123.314 168.591 123.513 168.981 123.493C169.11 123.485 169.237 123.455 169.357 123.407C169.566 123.319 169.759 123.196 169.926 123.043C170.393 122.588 170.766 122.044 171.023 121.444C171.36 120.664 171.228 120.346 171.433 120.214C171.909 119.91 173.608 120.928 175.392 122.759C175.892 123.586 176.343 124.443 176.741 125.324C178.038 128.139 178.813 131.167 179.028 134.26C179.048 134.558 179.061 134.862 179.074 135.166C179.081 135.463 179.087 135.767 179.087 136.071Z" fill="#606060"/>
<path d="M103.656 0C104.025 1.5036 104.31 3.02692 104.507 4.56268C104.726 6.08842 104.867 7.61984 104.993 9.15236C105.095 10.6867 105.18 12.2223 105.188 13.7635C105.219 15.3117 105.16 16.8604 105.013 18.402C104.642 16.8987 104.357 15.3753 104.16 13.8394C103.942 12.3137 103.8 10.7822 103.676 9.2496C103.576 7.71513 103.491 6.17956 103.483 4.6383C103.453 3.09017 103.51 1.5416 103.656 0V0Z" fill="#606060"/>
<path d="M113.186 19.6711C113.539 18.1038 113.977 16.5568 114.498 15.0373C114.997 13.5173 115.567 12.0261 116.151 10.5406C116.758 9.06429 117.381 7.59419 118.074 6.15283C118.751 4.69578 119.508 3.27723 120.342 1.90366C119.99 3.47145 119.553 5.01865 119.031 6.53821C118.532 8.05808 117.962 9.54922 117.377 11.0341C116.768 12.5098 116.146 13.98 115.452 15.4212C114.775 16.878 114.018 18.2967 113.186 19.6711Z" fill="#606060"/>
<path d="M89.1722 3.49005C89.9904 4.72513 90.7348 6.00752 91.4015 7.33052C92.0842 8.63691 92.6959 9.97412 93.294 11.3173C93.8694 12.6703 94.4296 14.03 94.9192 15.4203C95.4318 16.8103 95.8609 18.2298 96.204 19.6711C95.3845 18.4368 94.6395 17.1546 93.973 15.8314C93.2907 14.5249 92.6789 13.1877 92.0823 11.8438C91.5084 10.4902 90.9482 9.13053 90.4589 7.74008C89.9466 6.35001 89.517 4.93086 89.1722 3.49005V3.49005Z" fill="#606060"/>
<path d="M27.6116 110.949C27.0203 110.799 26.4184 110.694 25.8111 110.635C25.5237 110.598 25.2317 110.627 24.9572 110.72C24.6973 110.814 24.7793 111.099 24.9231 111.348C25.2587 111.844 25.6606 112.291 26.1174 112.678C26.563 113.088 27.0354 113.479 27.5152 113.845C27.5584 113.878 27.5867 113.927 27.594 113.98C27.6012 114.034 27.5867 114.089 27.5538 114.132C27.5316 114.16 27.5024 114.182 27.4692 114.196C27.436 114.21 27.3998 114.215 27.3641 114.211C26.1136 114.072 24.9354 113.554 23.9875 112.727C23.5071 112.312 23.1083 111.811 22.8116 111.25C22.655 110.958 22.5432 110.645 22.4801 110.321C22.4434 110.132 22.4473 109.938 22.4914 109.751C22.5239 109.631 22.5831 109.52 22.6647 109.426C22.6899 109.38 22.7135 109.365 22.7512 109.293C23.3028 108.289 23.7734 107.154 24.2524 106.065L25.6588 102.753C26.1304 101.646 26.6081 100.552 27.0125 99.432C27.4286 98.3118 27.7664 97.1771 28.1575 96.0317L29.3045 92.6069C29.6945 91.4686 30.1723 90.3607 30.6016 89.2373C32.3195 84.7351 34.5193 80.432 37.1626 76.4029C38.4972 74.3812 40.0727 72.5293 41.8543 70.8879C42.0792 70.6839 42.2984 70.4732 42.5285 70.2746L43.2494 69.7136C43.7276 69.3336 44.2284 68.983 44.7492 68.664C45.7949 67.9807 46.9507 67.4832 48.1657 67.1933L48.098 67.2094C50.1636 66.5942 52.2944 66.2238 54.4465 66.1059C56.5751 65.9328 58.7071 65.8776 60.8352 65.8755C62.9636 65.8764 65.0904 65.9178 67.2154 65.9997C69.3401 66.1002 71.4599 66.2278 73.5826 66.4011L73.3598 66.4767C74.1811 65.6355 74.9384 64.734 75.6253 63.7799L76.6863 62.3408C77.0257 61.8145 77.4711 61.3648 77.9939 61.0202C79.0803 60.4014 80.3578 60.2083 81.5786 60.4782C82.7711 60.6922 83.9071 61.1482 84.9166 61.8182C84.9206 61.8208 84.9241 61.8243 84.9268 61.8282C84.9295 61.8322 84.9314 61.8367 84.9324 61.8414C84.9333 61.8462 84.9334 61.851 84.9325 61.8558C84.9316 61.8605 84.9297 61.865 84.9271 61.869C84.9212 61.8768 84.9127 61.8821 84.9031 61.884C84.8936 61.8858 84.8837 61.8841 84.8753 61.879C83.8551 61.2703 82.7211 60.8766 81.5431 60.7222C80.3936 60.527 79.2121 60.7485 78.2114 61.347C77.743 61.6786 77.3498 62.1052 77.0576 62.599L76.0388 64.0817C75.3616 65.0922 74.5993 66.043 73.7603 66.9238C73.7338 66.9501 73.702 66.9706 73.6669 66.9839C73.6319 66.9971 73.5945 67.0029 73.5572 67.0007L73.5373 66.9995C71.4262 66.8705 69.3061 66.786 67.1893 66.7292C65.0721 66.6623 62.9545 66.6272 60.8385 66.6374C58.7222 66.6432 56.6094 66.7302 54.5048 66.8619C52.413 66.9521 50.3387 67.286 48.3242 67.8568L48.2796 67.8683L48.2563 67.873C47.1319 68.146 46.0573 68.5936 45.0715 69.1994C44.5604 69.4953 44.068 69.8223 43.5969 70.1785L42.8824 70.7063C42.6534 70.8943 42.4343 71.0952 42.2096 71.2891C41.7517 71.6684 41.3162 72.0739 40.9053 72.5036C40.4965 72.9361 40.0607 73.3446 39.6728 73.7974C38.9137 74.7172 38.1194 75.6121 37.4527 76.6072C34.7054 80.5421 32.4947 84.8254 30.8789 89.3442C30.4877 90.4781 30.0487 91.5941 29.6974 92.7404L28.6649 96.185C28.3127 97.3238 28.0139 98.508 27.5934 99.6412C27.1933 100.785 26.7198 101.899 26.261 103.007C25.8039 104.119 25.313 105.217 24.8265 106.317C24.3233 107.419 23.8651 108.506 23.2457 109.601C23.1949 109.684 23.1374 109.762 23.0737 109.836C23.0779 109.873 23.0467 109.848 23.046 109.908C23.0243 110.015 23.0237 110.124 23.044 110.231C23.0945 110.497 23.184 110.754 23.3095 110.994C23.5725 111.499 23.9205 111.956 24.3384 112.343C25.1913 113.132 26.2649 113.642 27.4155 113.804L27.2644 114.17C26.7805 113.776 26.3181 113.37 25.8735 112.935C25.4119 112.506 25.0139 112.013 24.6915 111.472C24.6084 111.319 24.5592 111.151 24.5473 110.977C24.5475 110.878 24.5782 110.782 24.6352 110.701C24.6922 110.62 24.7727 110.558 24.8659 110.525C25.177 110.43 25.5063 110.41 25.8266 110.467C26.4376 110.558 27.0408 110.695 27.6308 110.878C27.6355 110.88 27.6398 110.882 27.6436 110.885C27.6474 110.888 27.6505 110.892 27.6528 110.896C27.6552 110.9 27.6566 110.905 27.6572 110.91C27.6577 110.914 27.6573 110.919 27.656 110.924C27.6532 110.933 27.6471 110.941 27.6388 110.945C27.6306 110.95 27.6209 110.952 27.6116 110.949Z" fill="#606060"/>
<path d="M153.836 143.08C154.127 142.649 154.387 142.198 154.613 141.73C154.725 141.499 154.814 141.259 154.879 141.012C154.955 140.784 154.959 140.538 154.891 140.308C154.844 140.208 154.77 140.123 154.677 140.063C154.584 140.003 154.476 139.971 154.366 139.969C154.119 139.941 153.87 139.949 153.626 139.993C153.122 140.085 152.627 140.225 152.15 140.412C151.677 140.612 151.229 140.865 150.812 141.165C150.377 141.458 149.931 141.739 149.481 142.013C149.029 142.284 148.572 142.549 148.097 142.79C147.617 143.053 147.105 143.252 146.572 143.381C146.523 143.391 146.472 143.385 146.426 143.364C146.38 143.343 146.343 143.308 146.318 143.264C146.294 143.22 146.284 143.17 146.29 143.12C146.296 143.07 146.317 143.023 146.352 142.986L146.363 142.975C147.465 141.827 148.492 140.609 149.439 139.33L149.38 139.508L149.38 139.502C149.379 139.441 149.398 139.381 149.433 139.331L149.438 139.325C149.731 138.912 150.011 138.491 150.257 138.06C150.507 137.657 150.687 137.214 150.788 136.751C150.85 136.3 150.705 136.164 150.247 136.099C149.8 136.061 149.35 136.152 148.953 136.363C148.745 136.472 148.549 136.603 148.368 136.752C148.161 136.914 147.952 137.067 147.741 137.216C147.318 137.515 146.907 137.829 146.474 138.116C145.613 138.696 144.734 139.247 143.828 139.757C142.016 140.803 140.086 141.627 138.077 142.213C137.054 142.496 136.005 142.673 134.946 142.744C133.867 142.8 132.784 142.693 131.737 142.425C131.658 142.404 131.586 142.364 131.527 142.308C131.467 142.252 131.423 142.183 131.397 142.105C131.371 142.028 131.365 141.946 131.379 141.865C131.393 141.785 131.427 141.71 131.478 141.646L131.486 141.636L133.995 138.493L135.228 136.946C135.281 136.87 135.317 136.783 135.331 136.692C135.346 136.6 135.34 136.507 135.313 136.418C135.29 136.334 135.247 136.257 135.189 136.193C135.153 136.156 135.115 136.123 135.074 136.093C135.039 136.068 135.002 136.046 134.963 136.03C134.866 135.99 134.762 135.973 134.657 135.978C134.527 135.972 134.342 135.975 134.19 135.978C133.87 135.985 133.552 136.008 133.235 136.045C132.6 136.117 131.974 136.255 131.367 136.457C131.063 136.563 130.766 136.655 130.457 136.771C130.163 136.887 129.874 137.02 129.591 137.166L127.821 138.119C127.748 138.159 127.667 138.179 127.584 138.18L127.57 138.18H127.563L127.811 138.121C124.478 139.786 121.115 141.255 117.944 143.089L116.75 143.784C115.497 144.516 114.129 145.032 112.704 145.31C111.759 145.5 110.798 145.593 109.834 145.588C108.856 145.581 107.944 145.465 107.026 145.398L95.9875 144.474L84.9524 143.505C77.5953 142.869 70.2378 142.221 62.8774 141.657L60.1178 141.476C59.6559 141.445 59.2015 141.43 58.7482 141.417C58.4745 141.422 58.204 141.359 57.9607 141.234C57.7299 141.101 57.5311 140.919 57.3783 140.701C56.8719 139.882 56.5417 138.966 56.4086 138.013C56.2453 137.095 56.1342 136.168 56.0758 135.238C55.8879 131.537 55.9532 127.828 56.2711 124.136L56.4159 124.348C53.8747 123.567 51.3357 122.764 48.8673 121.767C46.3886 120.796 43.961 119.699 41.594 118.48C39.2281 117.261 36.9228 115.926 34.6356 114.586C32.3475 113.26 30.0387 111.931 27.5316 111.247L27.9664 110.918C27.9714 118.231 28.126 125.543 28.4302 132.856C28.589 136.508 28.7917 140.159 29.0909 143.798C29.1556 144.708 29.2466 145.616 29.3318 146.524C29.4117 147.433 29.5063 148.34 29.6158 149.244C29.7204 150.151 29.8014 151.062 29.9688 151.917C30.1311 152.783 30.3716 153.632 30.6872 154.454C31.9953 157.759 34.3673 160.535 37.4284 162.341C38.946 163.255 40.5858 163.949 42.2986 164.401C43.1551 164.629 44.0256 164.801 44.9046 164.914C45.7895 165.023 46.7125 165.096 47.6145 165.189L50.3354 165.45L53.063 165.626C54.8801 165.768 56.7022 165.807 58.5227 165.881C60.3431 165.964 62.1661 165.931 63.9878 165.961C65.809 165.917 67.6323 165.923 69.452 165.825C76.7384 165.528 83.9943 164.711 91.1641 163.379C94.7427 162.715 98.3424 161.957 101.964 161.355C105.585 160.741 109.214 160.227 112.845 159.735C120.105 158.741 127.379 157.897 134.64 156.99C138.268 156.525 141.903 156.07 145.49 155.427L146.824 155.157C147.27 155.069 147.684 154.924 148.117 154.811C148.531 154.649 148.941 154.469 149.347 154.283C149.745 154.082 150.129 153.853 150.496 153.599C151.231 153.109 151.834 152.447 152.254 151.67C152.455 151.296 152.545 150.873 152.514 150.45C152.496 150.25 152.426 150.059 152.312 149.895C152.197 149.731 152.042 149.6 151.861 149.514C151.837 149.503 151.815 149.485 151.799 149.464C151.782 149.442 151.772 149.417 151.767 149.391C151.763 149.364 151.765 149.337 151.774 149.311C151.782 149.285 151.797 149.262 151.817 149.244L151.827 149.234C152.223 148.907 152.601 148.558 152.959 148.19C153.307 147.816 153.596 147.391 153.815 146.93C153.929 146.709 153.998 146.469 154.018 146.222C154.039 145.975 154.01 145.726 153.934 145.491C153.733 145.025 153.381 144.641 152.935 144.4C152.925 144.395 152.917 144.387 152.91 144.378C152.904 144.369 152.899 144.359 152.896 144.348C152.893 144.337 152.893 144.325 152.894 144.314C152.896 144.303 152.9 144.292 152.906 144.283L152.913 144.272L153.836 143.08L153.839 143.076C153.85 143.062 153.866 143.053 153.883 143.051C153.9 143.048 153.917 143.053 153.931 143.063C153.945 143.074 153.954 143.089 153.957 143.106C153.959 143.124 153.955 143.141 153.945 143.155L153.044 144.382L153.021 144.254C153.511 144.505 153.901 144.914 154.129 145.415C154.222 145.676 154.262 145.953 154.247 146.23C154.233 146.507 154.164 146.778 154.044 147.029C153.825 147.521 153.533 147.976 153.177 148.38C152.815 148.772 152.431 149.144 152.027 149.494L151.993 149.214C152.23 149.319 152.436 149.484 152.59 149.692C152.744 149.9 152.842 150.145 152.873 150.402C152.926 150.896 152.836 151.394 152.614 151.838C152.184 152.691 151.551 153.425 150.77 153.976C150.391 154.253 149.994 154.503 149.581 154.725C149.162 154.931 148.736 155.131 148.304 155.312C147.856 155.444 147.406 155.611 146.956 155.711L145.606 156.018C141.997 156.73 138.371 157.247 134.747 157.775L112.999 160.826C109.38 161.356 105.765 161.908 102.173 162.555C100.374 162.858 98.5874 163.246 96.7976 163.593C95.0093 163.963 93.2117 164.346 91.4059 164.681C84.1766 166.041 76.8593 166.883 69.51 167.199C62.1601 167.531 54.7957 167.308 47.4792 166.533C46.5612 166.433 45.6589 166.358 44.7281 166.238C43.7922 166.111 42.8656 165.922 41.9544 165.674C40.125 165.179 38.3752 164.426 36.7577 163.439C33.4694 161.469 30.9314 158.459 29.5447 154.885C29.2095 153.995 28.9553 153.077 28.7852 152.142C28.6088 151.198 28.5329 150.283 28.4359 149.372C28.3362 148.457 28.2526 147.542 28.1848 146.627C28.1108 145.711 28.031 144.796 27.9778 143.881C27.7241 140.219 27.5681 136.555 27.456 132.892C27.2352 125.564 27.1753 118.237 27.2762 110.91L27.2763 110.904C27.2769 110.859 27.2862 110.815 27.3039 110.774C27.3215 110.733 27.3471 110.695 27.3791 110.664C27.4111 110.633 27.449 110.608 27.4905 110.592C27.532 110.575 27.5764 110.567 27.6211 110.567C27.6516 110.568 27.6818 110.572 27.7111 110.581C30.3366 111.338 32.6566 112.728 34.9307 114.085C37.2074 115.454 39.4689 116.829 41.8183 118.049C44.1651 119.272 46.5727 120.374 49.0318 121.352C51.4814 122.357 54.0045 123.168 56.5311 123.959C56.5756 123.973 56.6142 124.001 56.6405 124.04C56.6667 124.078 56.6793 124.125 56.676 124.171C56.3599 127.84 56.3122 131.528 56.5331 135.204C56.5964 136.116 56.7114 137.024 56.8774 137.923C57.0051 138.802 57.3101 139.645 57.7738 140.402C57.8856 140.563 58.0315 140.697 58.2011 140.795C58.3699 140.88 58.5577 140.92 58.7467 140.912C59.2163 140.922 59.6846 140.934 60.1441 140.962L62.9132 141.117C70.2892 141.557 77.6564 142.076 85.0246 142.594L96.0751 143.387L107.12 144.253C108.043 144.317 108.968 144.426 109.837 144.425C110.721 144.425 111.603 144.335 112.469 144.156C113.333 143.977 114.175 143.709 114.984 143.356C115.387 143.18 115.781 142.982 116.163 142.763L117.366 142.072C120.607 140.227 124.033 138.756 127.315 137.142L127.323 137.138C127.398 137.102 127.48 137.083 127.563 137.082H127.57L127.319 137.143L129.097 136.2C129.411 136.041 129.733 135.896 130.064 135.767C130.384 135.649 130.727 135.542 131.058 135.431C131.727 135.215 132.416 135.068 133.115 134.993C133.465 134.955 133.816 134.932 134.168 134.926C134.351 134.924 134.501 134.921 134.706 134.93C134.938 134.932 135.167 134.98 135.38 135.071C135.495 135.121 135.603 135.185 135.703 135.261C135.797 135.331 135.884 135.409 135.963 135.495C136.13 135.681 136.251 135.904 136.316 136.145C136.381 136.38 136.393 136.627 136.351 136.867C136.31 137.108 136.215 137.336 136.075 137.536L134.792 139.129L132.26 142.259L132.009 141.47C132.953 141.716 133.928 141.825 134.904 141.793C135.897 141.741 136.882 141.59 137.845 141.341C139.794 140.804 141.672 140.035 143.439 139.052C144.331 138.568 145.203 138.041 146.054 137.486C146.482 137.213 146.893 136.909 147.314 136.622C147.524 136.477 147.732 136.331 147.933 136.179C148.152 136.006 148.388 135.855 148.637 135.729C149.158 135.465 149.745 135.358 150.327 135.42C150.673 135.444 150.996 135.599 151.231 135.855C151.336 135.996 151.408 136.158 151.444 136.33C151.48 136.502 151.479 136.679 151.44 136.851C151.32 137.393 151.106 137.91 150.807 138.378C150.536 138.827 150.24 139.262 149.922 139.679L149.98 139.502L149.98 139.508L149.98 139.517C149.979 139.579 149.958 139.638 149.921 139.687C148.928 140.963 147.853 142.175 146.704 143.313L146.495 142.907C147.476 142.626 148.413 142.208 149.277 141.666C149.729 141.406 150.176 141.14 150.617 140.858C151.06 140.557 151.534 140.305 152.032 140.109C152.536 139.926 153.056 139.792 153.586 139.71C153.859 139.67 154.137 139.671 154.41 139.713C154.563 139.726 154.709 139.78 154.832 139.87C154.955 139.96 155.052 140.083 155.11 140.224C155.189 140.501 155.178 140.795 155.081 141.065C155.004 141.323 154.903 141.572 154.778 141.81C154.533 142.277 154.254 142.727 153.945 143.155C153.935 143.169 153.919 143.179 153.902 143.182C153.885 143.185 153.868 143.181 153.853 143.171C153.839 143.161 153.829 143.146 153.826 143.129C153.823 143.112 153.826 143.094 153.836 143.08V143.08Z" fill="#606060"/>
<path d="M146.741 143.447C145.744 144.031 144.738 144.57 143.703 145.065C142.679 145.577 141.607 145.987 140.503 146.286C141.56 145.874 142.573 145.356 143.527 144.742C144.489 144.148 145.429 143.505 146.331 142.837L146.336 142.833C146.414 142.775 146.513 142.751 146.609 142.765C146.706 142.78 146.792 142.832 146.85 142.91C146.909 142.989 146.933 143.087 146.919 143.183C146.905 143.28 146.853 143.367 146.774 143.425C146.764 143.433 146.753 143.44 146.741 143.447V143.447Z" fill="#606060"/>
<path d="M153.197 144.626C151.488 145.788 149.758 146.903 147.984 147.954C147.096 148.476 146.201 148.989 145.276 149.446C144.817 149.681 144.346 149.893 143.865 150.08C143.628 150.181 143.382 150.263 143.132 150.326C142.884 150.398 142.629 150.437 142.371 150.443C142.626 150.422 142.878 150.368 143.119 150.282C143.363 150.204 143.601 150.109 143.83 149.996C144.295 149.782 144.749 149.544 145.189 149.284C146.079 148.777 146.937 148.214 147.788 147.644C149.485 146.496 151.143 145.281 152.762 144.033L152.765 144.031C152.842 143.971 152.94 143.945 153.037 143.957C153.134 143.97 153.222 144.02 153.281 144.097C153.341 144.175 153.367 144.272 153.355 144.369C153.342 144.466 153.292 144.554 153.214 144.613L153.197 144.626Z" fill="#606060"/>
<path d="M152.164 149.648C151.497 150.136 150.797 150.576 150.069 150.966C149.353 151.358 148.614 151.707 147.857 152.013C146.354 152.631 144.782 153.063 143.175 153.301C144.745 152.946 146.267 152.401 147.706 151.678C148.422 151.324 149.118 150.927 149.788 150.492C150.454 150.067 151.091 149.597 151.692 149.084L151.704 149.074C151.74 149.042 151.783 149.018 151.829 149.003C151.875 148.987 151.923 148.981 151.971 148.984C152.02 148.988 152.067 149.001 152.11 149.022C152.154 149.044 152.192 149.074 152.224 149.11C152.256 149.147 152.28 149.19 152.295 149.236C152.311 149.282 152.317 149.33 152.313 149.379C152.309 149.427 152.296 149.474 152.275 149.517C152.253 149.561 152.223 149.599 152.186 149.631C152.179 149.637 152.171 149.643 152.164 149.648Z" fill="#606060"/>
<path d="M134.285 122.018C134.23 122.018 134.177 122.005 134.129 121.979C134.081 121.953 134.04 121.916 134.009 121.871L131.156 117.56C131.132 117.524 131.115 117.483 131.107 117.441C131.098 117.398 131.099 117.354 131.107 117.312C131.116 117.269 131.133 117.229 131.157 117.192C131.181 117.156 131.212 117.126 131.249 117.102C131.285 117.078 131.325 117.061 131.368 117.053C131.411 117.044 131.454 117.045 131.497 117.053C131.54 117.062 131.58 117.079 131.616 117.103C131.652 117.127 131.683 117.158 131.707 117.195L134.561 121.505C134.609 121.578 134.626 121.668 134.609 121.754C134.591 121.839 134.541 121.915 134.468 121.964C134.414 122 134.35 122.019 134.285 122.018V122.018Z" fill="#606060"/>
<path d="M148.979 111.244C148.924 111.244 148.87 111.231 148.822 111.205C148.774 111.179 148.733 111.142 148.703 111.097L145.848 106.786C145.824 106.75 145.808 106.709 145.8 106.667C145.791 106.624 145.791 106.58 145.8 106.538C145.809 106.495 145.826 106.454 145.85 106.418C145.874 106.382 145.905 106.352 145.941 106.328C145.978 106.304 146.018 106.287 146.061 106.279C146.103 106.27 146.147 106.271 146.19 106.279C146.232 106.288 146.273 106.305 146.309 106.329C146.345 106.353 146.376 106.384 146.4 106.421L149.254 110.731C149.287 110.781 149.306 110.839 149.309 110.899C149.312 110.958 149.298 111.018 149.27 111.07C149.242 111.123 149.2 111.167 149.148 111.198C149.097 111.228 149.038 111.244 148.979 111.244V111.244Z" fill="#606060"/>
</svg>
