<svg width="18" height="18" viewBox="0 0 18 18" fill="none" xmlns="http://www.w3.org/2000/svg">
<path d="M14.058 7.875C13.671 7.875 13.365 7.56 13.365 7.182C13.365 6.849 13.032 6.15601 12.474 5.55301C11.925 4.96801 11.322 4.62601 10.818 4.62601C10.431 4.62601 10.125 4.31101 10.125 3.93301C10.125 3.55501 10.44 3.24001 10.818 3.24001C11.718 3.24001 12.663 3.72601 13.491 4.59901C14.265 5.41801 14.76 6.43501 14.76 7.17301C14.76 7.56001 14.445 7.875 14.058 7.875Z" fill="#606060"/>
<path d="M17.307 7.875C16.92 7.875 16.614 7.56 16.614 7.182C16.614 3.987 14.013 1.395 10.827 1.395C10.44 1.395 10.134 1.08 10.134 0.702C10.134 0.324 10.44 0 10.818 0C14.778 0 18 3.222 18 7.182C18 7.56 17.685 7.875 17.307 7.875Z" fill="#606060"/>
<path d="M8.145 11.655L6.48 13.32C6.129 13.671 5.571 13.671 5.211 13.329C5.112 13.23 5.013 13.14 4.914 13.041C3.987 12.105 3.15 11.124 2.403 10.098C1.665 9.072 1.071 8.046 0.639 7.029C0.216 6.003 0 5.022 0 4.086C0 3.474 0.108 2.889 0.324 2.349C0.54 1.8 0.882 1.296 1.359 0.846C1.935 0.279 2.565 0 3.231 0C3.483 0 3.735 0.0540001 3.96 0.162C4.194 0.27 4.401 0.432 4.563 0.666L6.651 3.609C6.813 3.834 6.93 4.041 7.011 4.239C7.092 4.428 7.137 4.617 7.137 4.788C7.137 5.004 7.074 5.22 6.948 5.427C6.831 5.634 6.66 5.85 6.444 6.066L5.76 6.777C5.661 6.876 5.616 6.993 5.616 7.137C5.616 7.209 5.625 7.272 5.643 7.344C5.67 7.416 5.697 7.47 5.715 7.524C5.877 7.821 6.156 8.208 6.552 8.676C6.957 9.144 7.389 9.621 7.857 10.098C7.947 10.188 8.046 10.278 8.136 10.368C8.496 10.719 8.505 11.295 8.145 11.655Z" fill="#606060"/>
<path d="M17.973 14.697C17.973 14.949 17.928 15.21 17.838 15.462C17.811 15.534 17.784 15.606 17.748 15.678C17.595 16.002 17.397 16.308 17.136 16.596C16.695 17.082 16.209 17.433 15.66 17.658C15.651 17.658 15.642 17.667 15.633 17.667C15.102 17.883 14.526 18 13.905 18C12.987 18 12.006 17.784 10.971 17.343C9.936 16.902 8.901 16.308 7.875 15.561C7.524 15.3 7.173 15.039 6.84 14.76L9.783 11.817C10.035 12.006 10.26 12.15 10.449 12.249C10.494 12.267 10.548 12.294 10.611 12.321C10.683 12.348 10.755 12.357 10.836 12.357C10.989 12.357 11.106 12.303 11.205 12.204L11.889 11.529C12.114 11.304 12.33 11.133 12.537 11.025C12.744 10.899 12.951 10.836 13.176 10.836C13.347 10.836 13.527 10.872 13.725 10.953C13.923 11.034 14.13 11.151 14.355 11.304L17.334 13.419C17.568 13.581 17.73 13.77 17.829 13.995C17.919 14.22 17.973 14.445 17.973 14.697Z" fill="#606060"/>
</svg>
