<svg width="22" height="18" viewBox="0 0 22 18" fill="none" xmlns="http://www.w3.org/2000/svg">
<path d="M16.7059 0H6.11767C2.94119 0 0.823547 1.58824 0.823547 5.29412V12.7059C0.823547 16.4118 2.94119 18 6.11767 18H16.7059C19.8824 18 22 16.4118 22 12.7059V5.29412C22 1.58824 19.8824 0 16.7059 0ZM17.2035 6.44824L13.8894 9.09529C13.1906 9.65647 12.3012 9.93177 11.4118 9.93177C10.5224 9.93177 9.62237 9.65647 8.93414 9.09529L5.62002 6.44824C5.28119 6.17294 5.22825 5.66471 5.49296 5.32588C5.76825 4.98706 6.2659 4.92353 6.60472 5.19882L9.91884 7.84588C10.7235 8.49177 12.0894 8.49177 12.8941 7.84588L16.2083 5.19882C16.5471 4.92353 17.0553 4.97647 17.32 5.32588C17.5953 5.66471 17.5424 6.17294 17.2035 6.44824Z" fill="#606060"/>
</svg>
