<?xml version="1.0" standalone="no"?>
<!DOCTYPE svg PUBLIC "-//W3C//DTD SVG 20010904//EN"
 "http://www.w3.org/TR/2001/REC-SVG-20010904/DTD/svg10.dtd">
<svg version="1.0" xmlns="http://www.w3.org/2000/svg"
 width="649.000000pt" height="649.000000pt" viewBox="0 0 649.000000 649.000000"
 preserveAspectRatio="xMidYMid meet">
<metadata>
Created by potrace 1.14, written by Peter Selinger 2001-2017
</metadata>
<g transform="translate(0.000000,649.000000) scale(0.100000,-0.100000)"
fill="#000000" stroke="none">
<path d="M5989 6076 c-2 -2 -24 -6 -49 -10 -155 -20 -386 -93 -635 -201 -104
-45 -366 -175 -503 -249 l-64 -34 -1949 0 c-2145 0 -2003 4 -2076 -60 -31 -28
-71 -94 -78 -129 -2 -10 -4 -775 -4 -1700 -1 -1340 -4 -1684 -14 -1695 -7 -7
-20 -24 -29 -38 -9 -14 -33 -47 -53 -75 -46 -64 -195 -286 -195 -290 0 -2 -18
-32 -40 -68 -111 -183 -224 -450 -248 -586 -14 -78 -12 -190 4 -236 7 -22 12
-46 9 -53 -3 -7 -1 -11 4 -8 12 8 34 -21 26 -34 -4 -6 -1 -9 7 -8 7 2 12 -3
10 -10 -1 -8 1 -11 6 -8 5 3 25 -6 45 -19 20 -14 41 -25 47 -25 6 0 8 -4 5
-10 -3 -5 2 -9 12 -8 10 0 29 0 43 -1 20 -1 22 -3 10 -11 -9 -6 -10 -10 -3
-10 6 0 15 5 18 10 4 6 11 8 16 4 6 -4 6 -10 0 -18 -8 -9 -7 -13 4 -13 7 0 13
5 12 11 -1 6 32 11 85 12 48 1 92 5 97 9 6 3 11 0 11 -7 0 -10 2 -10 9 1 5 8
19 12 35 9 14 -3 24 -2 21 1 -2 4 27 13 65 20 63 11 73 11 102 -6 18 -10 35
-20 38 -23 10 -10 37 -11 203 -11 129 0 166 -2 161 -12 -5 -9 -4 -9 7 0 18 18
83 18 73 1 -6 -10 -5 -10 8 0 18 14 201 16 192 1 -3 -5 0 -9 5 -9 6 0 11 4 11
9 0 6 65 10 155 10 86 0 153 -4 150 -9 -3 -5 -1 -12 5 -15 6 -4 9 -1 8 7 -2
10 18 14 85 16 70 2 87 0 81 -10 -6 -10 -5 -10 7 -1 19 15 161 15 152 -1 -5
-7 -2 -7 8 1 19 15 182 15 172 0 -5 -8 -2 -8 8 0 22 18 483 17 473 0 -5 -8 -3
-8 7 1 7 6 28 12 47 12 24 0 31 -4 26 -12 -6 -10 -4 -10 7 -1 18 17 63 17 53
1 -6 -10 -5 -10 7 -2 20 17 163 18 153 1 -6 -9 -5 -9 7 0 18 14 303 17 294 2
-4 -5 -1 -9 4 -9 6 0 11 4 11 9 0 6 65 10 155 10 118 0 154 -3 149 -12 -5 -8
-3 -8 7 1 8 8 46 12 107 12 72 0 92 -3 86 -12 -6 -10 -4 -10 7 -1 16 15 75 17
84 3 3 -5 12 -10 18 -10 7 0 6 4 -3 10 -9 6 56 9 183 9 151 0 196 -3 191 -12
-5 -9 -3 -8 7 1 7 6 28 12 47 12 24 0 31 -4 26 -12 -6 -10 -4 -10 7 0 18 17
83 17 73 0 -6 -10 -5 -10 7 -1 22 18 483 17 473 0 -5 -8 -3 -8 7 1 7 6 28 12
47 12 24 0 31 -4 26 -12 -6 -10 -4 -10 7 0 7 6 28 12 47 12 24 0 31 -4 26 -12
-6 -10 -4 -10 7 0 16 14 75 16 84 2 3 -5 12 -10 18 -10 7 0 6 4 -3 10 -10 7
16 10 83 9 55 -1 95 -5 91 -10 -3 -5 0 -9 5 -9 6 0 11 5 11 11 0 7 12 10 30 7
17 -3 30 0 30 5 0 5 6 7 13 4 6 -2 24 1 38 7 36 15 109 78 109 93 0 7 4 13 9
13 30 0 33 101 32 1160 0 1144 2 1087 -49 1163 -23 34 -82 76 -125 88 -17 5
-264 9 -549 9 -285 0 -518 4 -518 8 0 11 52 57 64 57 6 1 10 7 8 14 -2 9 3 11
15 7 9 -4 14 -4 10 0 -4 4 3 18 15 31 17 19 24 21 37 10 14 -10 14 -10 4 4
-11 13 -9 20 10 37 13 12 27 19 32 15 4 -5 5 -2 1 5 -5 7 -1 12 10 12 10 0 14
3 11 7 -9 9 33 53 50 53 7 0 12 3 11 8 -3 9 241 257 253 257 5 0 8 3 7 6 -5
12 25 39 36 32 6 -3 8 -3 4 2 -4 4 -3 14 3 22 9 10 15 11 28 1 13 -10 14 -10
4 2 -18 20 -16 27 8 33 12 3 18 10 14 17 -4 7 0 10 11 8 13 -2 18 2 16 13 -1
9 12 30 30 46 18 16 50 48 71 71 20 23 37 37 37 30 0 -9 3 -9 12 0 16 16 31
15 22 0 -6 -10 -4 -10 7 0 15 14 33 17 25 4 -3 -5 1 -9 9 -9 8 0 12 4 9 9 -8
13 10 10 25 -4 11 -10 13 -10 7 0 -4 6 -3 12 1 12 5 0 15 -6 22 -12 8 -8 11
-8 8 -2 -8 14 60 13 82 0 9 -6 12 -5 8 1 -4 7 4 10 21 10 15 0 38 3 51 7 18 6
22 5 17 -5 -4 -8 1 -4 10 9 20 26 36 29 27 5 -3 -10 -3 -15 1 -11 4 3 8 12 10
20 3 19 38 58 48 52 4 -3 5 2 2 11 -4 8 -1 22 6 29 8 10 11 74 12 205 0 181 1
193 23 224 12 17 27 31 32 30 6 -1 10 5 9 15 -1 11 6 16 19 15 11 -1 15 0 8 3
-14 6 8 46 53 97 16 17 29 35 29 39 0 3 11 16 24 27 13 12 21 21 17 21 -4 0 3
15 16 33 38 53 51 66 61 60 5 -3 7 0 5 8 -3 8 -1 22 4 32 8 16 12 16 26 5 15
-12 16 -11 3 5 -11 13 -11 20 -1 32 7 8 17 12 23 8 6 -3 7 -1 3 6 -4 6 2 24
13 40 12 16 21 33 21 38 0 4 11 20 24 35 14 14 22 29 19 32 -4 3 -1 6 5 6 7 0
12 6 12 13 0 6 15 35 34 64 27 42 35 50 46 40 12 -10 12 -9 2 4 -9 13 -9 23 4
48 9 17 20 28 26 25 6 -4 8 -2 5 4 -10 15 3 43 16 35 6 -3 7 -1 3 6 -4 6 1 26
12 44 10 18 22 45 26 61 5 20 11 26 23 22 13 -5 14 -4 3 9 -7 8 -8 15 -3 15 5
0 9 8 10 18 1 14 30 104 50 152 6 15 7 20 18 80 4 19 12 41 18 49 7 8 7 12 2
9 -7 -4 -9 19 -7 65 8 150 -59 255 -192 304 -37 14 -256 30 -267 19z m-2914
-1516 c-3 -5 0 -12 7 -16 7 -4 10 -4 6 1 -4 4 -3 14 3 22 10 11 14 10 25 -4
13 -17 14 -17 8 0 -7 19 15 21 28 2 5 -6 8 -5 8 4 0 10 3 11 13 2 8 -6 17 -8
21 -4 13 13 35 11 29 -3 -3 -8 -9 -14 -14 -14 -4 0 -22 -12 -38 -27 -16 -16
-40 -36 -52 -46 -48 -37 -94 -74 -183 -146 -124 -102 -320 -264 -326 -271 -3
-3 -75 -66 -160 -140 -168 -146 -194 -169 -355 -318 -51 -47 -388 -367 -433
-411 -13 -13 -14 -11 -9 15 4 16 9 49 12 74 4 25 11 65 17 90 5 25 12 56 14
69 3 13 9 32 15 43 5 10 7 18 4 18 -4 0 -3 6 2 13 8 12 9 17 12 38 0 5 4 8 9
6 4 -3 8 8 9 24 1 15 9 40 18 53 9 14 16 28 14 32 -1 4 9 18 22 32 13 14 18
22 12 18 -18 -10 -16 10 3 28 8 9 13 16 9 16 -3 0 -1 9 5 20 6 11 15 18 20 15
6 -4 7 1 3 11 -4 12 -3 15 5 10 8 -5 10 -2 6 8 -4 9 1 18 10 22 9 3 14 10 11
14 -3 5 0 12 5 15 6 4 15 18 21 32 5 13 14 21 19 18 6 -4 9 -3 8 2 -4 14 23
54 32 48 6 -3 7 0 4 8 -3 8 3 20 12 28 16 12 17 12 9 -1 -5 -9 -5 -12 1 -7 5
5 9 12 10 15 3 22 18 42 32 42 8 0 12 3 9 7 -11 10 44 63 57 56 6 -3 8 -3 4 1
-9 11 23 46 35 39 6 -3 7 -1 4 4 -4 6 5 19 19 29 15 11 34 26 43 35 50 50 271
189 271 171 0 -4 4 -2 8 3 4 6 17 15 29 22 17 10 23 10 26 0 3 -7 6 -5 6 5 1
22 33 28 48 8 10 -12 11 -11 6 9 -5 21 -3 23 20 19 15 -3 25 -1 24 6 -1 5 3
10 8 11 6 0 16 4 23 8 7 5 12 3 12 -5 0 -9 3 -9 10 2 5 8 13 15 17 16 4 0 15
3 23 6 35 14 145 36 152 32 4 -3 8 1 8 8 0 9 3 9 10 -2 7 -11 12 -12 18 -4 4
7 33 14 66 17 32 4 61 9 64 11 8 8 23 -4 17 -14z m1055 -331 c3 -3 13 -8 23
-12 11 -4 15 -12 11 -18 -4 -7 -3 -9 3 -6 13 8 36 -17 25 -28 -4 -5 -2 -5 4
-2 15 9 166 -152 157 -166 -3 -5 -1 -7 4 -4 11 7 46 -39 46 -60 0 -7 2 -11 5
-8 4 4 23 -9 79 -55 7 -6 15 -10 18 -10 35 1 45 -2 39 -11 -4 -8 0 -8 15 0 24
13 45 6 35 -11 -4 -7 -2 -8 5 -4 6 4 9 12 6 17 -8 13 9 11 22 -2 7 -7 17 -8
25 -3 20 13 40 14 59 3 12 -6 20 -5 25 2 4 8 9 7 15 -2 5 -8 9 -9 9 -4 0 6 16
11 35 12 23 0 33 -3 28 -11 -3 -6 0 -6 8 2 7 6 17 12 22 12 4 0 5 -6 1 -12 -6
-10 -4 -10 7 0 15 14 33 17 25 4 -3 -5 1 -9 9 -9 8 0 12 4 10 7 -3 4 6 8 20 8
14 0 22 -5 18 -11 -4 -6 -1 -7 8 -1 21 13 59 13 52 0 -3 -6 0 -5 8 2 7 6 17
12 22 12 4 0 5 -6 1 -12 -5 -9 -2 -8 9 1 60 48 -14 -55 -143 -199 -36 -40 -73
-82 -83 -94 -43 -50 -232 -251 -356 -378 l-134 -138 -461 0 c-426 0 -464 -2
-501 -19 -48 -22 -69 -44 -91 -96 -14 -34 -16 -79 -16 -285 1 -135 3 -252 5
-260 9 -34 32 -71 54 -85 13 -9 21 -21 17 -27 -5 -7 -2 -9 9 -5 9 3 27 -3 40
-14 14 -10 29 -19 34 -19 4 0 1 5 -7 10 -11 8 -9 9 13 8 15 -1 27 -3 27 -4 0
-1 -51 -44 -112 -95 -62 -52 -118 -98 -124 -104 -7 -5 -35 -28 -64 -50 -29
-22 -67 -52 -84 -66 -43 -36 -354 -270 -390 -293 -29 -18 -29 -18 -105 15 -42
18 -94 44 -116 56 -22 12 -56 31 -76 42 -129 71 -320 244 -425 386 -86 117
-85 114 -56 147 14 15 29 25 35 21 6 -3 7 -2 4 4 -4 6 7 25 23 43 17 19 30 37
30 41 0 4 9 10 20 14 11 3 19 9 17 13 -2 7 59 76 148 166 27 28 48 54 47 59
-1 4 9 12 24 17 15 6 22 14 18 22 -5 8 -2 9 10 5 10 -4 15 -3 11 3 -7 12 74
96 89 92 6 -2 8 0 4 4 -11 10 12 35 25 27 5 -3 7 -2 4 4 -6 10 33 49 46 45 4
-1 6 2 5 7 -2 5 57 68 131 140 115 113 136 129 150 119 14 -11 14 -11 4 3 -11
13 -8 20 15 42 16 15 31 25 34 21 3 -3 9 0 14 7 5 8 3 10 -7 4 -8 -4 -4 3 8
15 19 21 24 22 40 9 16 -13 17 -12 4 4 -12 15 -11 20 7 35 11 9 31 26 44 37
12 11 26 19 30 17 5 -1 7 2 5 7 -1 5 13 23 32 40 29 26 37 29 50 18 14 -11 14
-10 2 6 -12 16 -9 22 12 18 5 -1 6 3 3 8 -3 5 10 22 30 37 20 16 51 44 70 62
18 18 37 34 41 35 4 1 7 5 6 9 -2 5 2 8 7 8 6 0 22 12 35 26 22 23 27 25 42
13 16 -13 17 -12 5 2 -11 14 -8 21 19 43 26 22 34 25 48 14 14 -11 14 -11 3 3
-11 15 -9 20 14 38 15 12 31 21 36 21 5 0 6 5 3 10 -3 6 -2 10 4 10 6 0 19 9
30 21 11 12 24 18 30 14 6 -3 11 -1 11 5 0 17 29 42 40 35 6 -4 9 -1 8 7 -2 7
3 12 10 10 6 -1 11 2 10 6 -3 8 65 72 76 72 3 0 25 18 48 40 23 23 47 39 55
36 8 -3 12 -2 9 3 -6 9 63 67 76 64 4 -2 8 3 8 10 0 10 56 54 85 66 5 2 17 14
27 25 15 18 19 19 29 6 9 -13 10 -12 5 3 -4 13 0 20 14 24 11 3 20 9 20 13 0
5 19 22 42 39 l42 31 25 -23 c14 -12 28 -25 31 -28z m-580 -1994 c-11 -13 -10
-14 4 -9 9 3 16 9 16 13 0 9 134 6 148 -3 6 -3 13 -3 15 1 8 13 428 8 468 -6
82 -27 127 -127 89 -200 -45 -89 -289 -274 -471 -359 -61 -28 -194 -79 -229
-87 -70 -18 -216 -45 -265 -50 -122 -12 -293 -7 -390 11 -11 2 -33 6 -50 9
-44 8 -118 26 -135 33 -20 7 -28 9 -41 11 -8 1 -8 6 1 16 7 9 15 14 17 11 2
-2 14 5 26 16 47 44 199 148 208 142 5 -3 8 -1 7 4 -2 5 40 41 92 80 52 40
106 81 118 92 13 11 29 17 34 13 7 -3 8 -1 4 5 -4 7 3 17 18 24 14 6 26 15 26
20 0 4 4 8 9 8 5 0 23 13 41 30 18 16 36 27 41 24 5 -3 8 0 7 8 -2 7 4 13 12
13 8 0 17 6 20 13 3 8 9 12 12 10 3 -2 16 9 28 25 21 27 48 38 34 15 -4 -8 -3
-10 2 -5 5 5 9 12 9 16 0 11 32 41 43 41 6 0 12 7 16 15 3 8 11 15 17 15 8 0
8 -4 -1 -15z"/>
<path d="M2335 4310 c-3 -5 -1 -10 4 -10 6 0 11 5 11 10 0 6 -2 10 -4 10 -3 0
-8 -4 -11 -10z"/>
<path d="M3835 4079 c-4 -6 -5 -12 -2 -15 2 -3 7 2 10 11 7 17 1 20 -8 4z"/>
<path d="M4296 4043 c-6 -14 -5 -15 5 -6 7 7 10 15 7 18 -3 3 -9 -2 -12 -12z"/>
<path d="M4455 3871 c-3 -5 -2 -12 3 -15 5 -3 9 1 9 9 0 17 -3 19 -12 6z"/>
<path d="M2600 3010 c-9 -6 -10 -10 -3 -10 6 0 15 5 18 10 8 12 4 12 -15 0z"/>
<path d="M5160 3730 c-9 -6 -10 -10 -3 -10 6 0 15 5 18 10 8 12 4 12 -15 0z"/>
<path d="M4933 3485 c0 -8 4 -12 9 -9 5 3 6 10 3 15 -9 13 -12 11 -12 -6z"/>
<path d="M680 530 c-9 -6 -10 -10 -3 -10 6 0 15 5 18 10 8 12 4 12 -15 0z"/>
<path d="M1833 475 c0 -8 4 -12 9 -9 5 3 6 10 3 15 -9 13 -12 11 -12 -6z"/>
<path d="M3753 475 c0 -8 4 -12 9 -9 5 3 6 10 3 15 -9 13 -12 11 -12 -6z"/>
<path d="M910 476 c0 -2 7 -7 16 -10 8 -3 12 -2 9 4 -6 10 -25 14 -25 6z"/>
<path d="M1390 476 c0 -2 7 -7 16 -10 8 -3 12 -2 9 4 -6 10 -25 14 -25 6z"/>
<path d="M1710 476 c0 -2 7 -7 16 -10 8 -3 12 -2 9 4 -6 10 -25 14 -25 6z"/>
<path d="M1970 476 c0 -2 7 -7 16 -10 8 -3 12 -2 9 4 -6 10 -25 14 -25 6z"/>
<path d="M2130 476 c0 -2 7 -7 16 -10 8 -3 12 -2 9 4 -6 10 -25 14 -25 6z"/>
<path d="M2510 476 c0 -2 7 -7 16 -10 8 -3 12 -2 9 4 -6 10 -25 14 -25 6z"/>
<path d="M3090 476 c0 -2 7 -7 16 -10 8 -3 12 -2 9 4 -6 10 -25 14 -25 6z"/>
<path d="M3310 476 c0 -2 7 -7 16 -10 8 -3 12 -2 9 4 -6 10 -25 14 -25 6z"/>
<path d="M3575 470 c-3 -5 -1 -10 4 -10 6 0 11 5 11 10 0 6 -2 10 -4 10 -3 0
-8 -4 -11 -10z"/>
<path d="M3690 476 c0 -2 7 -7 16 -10 8 -3 12 -2 9 4 -6 10 -25 14 -25 6z"/>
<path d="M4110 476 c0 -2 7 -7 16 -10 8 -3 12 -2 9 4 -6 10 -25 14 -25 6z"/>
<path d="M4755 470 c3 -5 8 -10 11 -10 2 0 4 5 4 10 0 6 -5 10 -11 10 -5 0 -7
-4 -4 -10z"/>
<path d="M5390 476 c0 -2 7 -7 16 -10 8 -3 12 -2 9 4 -6 10 -25 14 -25 6z"/>
<path d="M5465 470 c-3 -6 1 -7 9 -4 18 7 21 14 7 14 -6 0 -13 -4 -16 -10z"/>
</g>
</svg>
